<svg width="450" height="543" viewBox="0 0 450 543" fill="none" xmlns="http://www.w3.org/2000/svg">
<path d="M785.7 437C785.692 359.078 759.68 283.392 711.797 221.961C663.913 160.529 596.902 116.875 521.405 97.9288C445.907 78.9827 366.252 85.8313 295.086 117.387C223.921 148.943 165.326 203.397 128.605 272.102C91.885 340.807 79.1444 419.825 92.4067 496.607C105.669 573.39 144.174 643.536 201.807 695.906C259.441 748.277 332.898 779.87 410.515 785.668C488.133 791.466 565.46 771.138 630.219 727.91L678.67 800.627C607.006 848.597 522.707 874.138 436.5 873.999C195.421 873.999 0 678.355 0 437C0 195.645 195.421 0 436.5 0C677.579 0 873 195.645 873 437V502.55C873.005 535.27 862.528 567.13 843.109 593.448C823.69 619.767 796.353 639.157 765.112 648.771C733.872 658.384 700.375 657.715 669.543 646.86C638.711 636.005 612.168 615.538 593.815 588.464C564.681 618.791 527.421 640.052 486.51 649.693C445.6 659.333 402.779 656.942 363.193 642.808C323.606 628.674 288.938 603.397 263.354 570.014C237.769 536.632 222.357 496.564 218.968 454.624C215.579 412.684 224.357 370.657 244.249 333.591C264.141 296.526 294.299 265.998 331.101 245.677C367.903 225.356 409.784 216.105 451.71 219.036C493.637 221.967 533.826 236.955 567.45 262.2H654.75V502.55C654.75 519.935 661.648 536.607 673.927 548.901C686.206 561.193 702.86 568.1 720.225 568.1C737.59 568.1 754.244 561.193 766.523 548.901C778.802 536.607 785.7 519.935 785.7 502.55V437ZM436.5 305.9C401.77 305.9 368.462 319.712 343.904 344.298C319.346 368.884 305.55 402.23 305.55 437C305.55 471.77 319.346 505.115 343.904 529.701C368.462 554.287 401.77 568.1 436.5 568.1C471.23 568.1 504.538 554.287 529.096 529.701C553.654 505.115 567.45 471.77 567.45 437C567.45 402.23 553.654 368.884 529.096 344.298C504.538 319.712 471.23 305.9 436.5 305.9Z" fill="#0B264C"/>
</svg>
