<svg width="527" height="113" viewBox="0 0 527 113" fill="none" xmlns="http://www.w3.org/2000/svg">
<path d="M113.14 6.35925V104.787L112.587 105.34H90.1093L89.5562 104.787V30.0905L89.0032 29.5374H68.1775C68.2955 29.8987 67.8088 30.3338 67.8088 30.4592V105.333H44.9625L44.5938 29.5374H23.7681L23.215 30.0905V105.333H0V6.35925H113.14Z" fill="white"/>
<path d="M442.857 9.93298C452.207 19.3576 461.632 28.8265 471.049 38.2512L471.986 38.7969L510.127 1.39328L511.064 1.59239L526.734 17.632L489.154 55.5813L527 93.7887L510.319 110.448L472.318 72.6681L433.874 110.396L417.739 94.6368L417.99 93.0439L455.187 55.8542L417.68 17.9343L417.99 16.8872L433.749 1.30479C434.206 1.13517 434.457 1.37853 434.796 1.61452C437.068 3.13367 440.733 7.79437 442.871 9.94773L442.857 9.93298Z" fill="#0179ff"/>
<path d="M223.996 112.189L214.52 92.3217H168.561L158.141 112.181L137.36 101.171L191.349 0L245.308 101.304L244.74 101.872L223.988 112.189H223.996ZM203.694 71.3707L191.164 45.9802L178.996 71.3707H203.686H203.694Z" fill="white"/>
<path d="M352.117 5.14709V80.0207L352.67 80.5738H390.442V104.121H328.533V5.14709H352.117Z" fill="white"/>
<path d="M296.46 5.14709H272.507V104.128H296.46V5.14709Z" fill="white"/>
</svg>
