<svg width="527" height="113" viewBox="0 0 527 113" fill="none" xmlns="http://www.w3.org/2000/svg">
<path d="M113.14 6.35919V104.787L112.587 105.34H90.1093L89.5562 104.787V30.0904L89.0032 29.5373H68.1775C68.2955 29.8987 67.8088 30.3338 67.8088 30.4591V105.333H44.9625L44.5938 29.5373H23.7681L23.215 30.0904V105.333H0V6.35919H113.14Z" fill="black"/>
<path d="M442.857 9.933C452.207 19.3576 461.632 28.8265 471.049 38.2512L471.986 38.7969L510.127 1.3933L511.064 1.59241L526.734 17.632L489.154 55.5813L527 93.7887L510.319 110.448L472.318 72.6681L433.874 110.396L417.739 94.6368L417.99 93.0439L455.187 55.8542L417.68 17.9344L417.99 16.8872L433.749 1.30481C434.206 1.13519 434.457 1.37855 434.796 1.61454C437.068 3.13369 440.733 7.79439 442.871 9.94775L442.857 9.933Z" fill="#4DACFC"/>
<path d="M223.996 112.189L214.52 92.3217H168.561L158.141 112.181L137.36 101.171L191.349 0L245.308 101.304L244.74 101.872L223.988 112.189H223.996ZM203.694 71.3707L191.164 45.9802L178.996 71.3707H203.686H203.694Z" fill="black"/>
<path d="M352.117 5.14713V80.0207L352.67 80.5738H390.442V104.121H328.533V5.14713H352.117Z" fill="black"/>
<path d="M296.46 5.14713H272.507V104.128H296.46V5.14713Z" fill="black"/>
</svg>
