<svg preserveAspectRatio="none" width="100%" height="100%" overflow="visible" style="display: block;" viewBox="0 0 92.4 59.95" fill="none" xmlns="http://www.w3.org/2000/svg">
<g id="Frame 2087331324">
<path id="Line 45" d="M46.2 32L49.0868 27L43.3133 27L46.2 32ZM46.2 26L46.7 26L46.7 22L46.2 22L45.7 22L45.7 26L46.2 26ZM46.2 18L46.7 18L46.7 14L46.2 14L45.7 14L45.7 18L46.2 18ZM46.2 10L46.7 10L46.7 6L46.2 6L45.7 6L45.7 10L46.2 10ZM46.2 2L46.7 2L46.7 0L46.2 2.18557e-08L45.7 4.37114e-08L45.7 2L46.2 2Z" fill="url(#paint0_linear_21_205)"/>
<g id="mailX-1 1" clip-path="url(#clip0_21_205)">
<path id="Vector" d="M19.8371 41.123V58.5003L19.7401 58.598H15.799L15.7021 58.5003V45.3128L15.6051 45.2151H11.9537C11.9744 45.2789 11.8891 45.3557 11.8891 45.3779V58.5967H7.88337L7.81872 45.2151H4.16731L4.07033 45.3128V58.5967H0V41.123H19.8371Z" fill="var(--fill-0, #151515)"/>
<path id="Vector_2" d="M77.647 41.7538C79.2863 43.4178 80.9388 45.0895 82.5899 46.7534L82.7542 46.8497L89.4415 40.2462L89.6058 40.2813L92.3533 43.1131L85.7643 49.813L92.3999 56.5585L89.4752 59.4996L82.8124 52.8296L76.0719 59.4905L73.243 56.7082L73.287 56.427L79.8088 49.8612L73.2326 43.1665L73.287 42.9816L76.05 40.2306C76.1302 40.2006 76.1742 40.2436 76.2336 40.2852C76.632 40.5534 77.2746 41.3763 77.6494 41.7565L77.647 41.7538Z" fill="var(--fill-0, #0179FF)"/>
<path id="Vector_3" d="M39.2741 59.8068L37.6126 56.2993H29.5545L27.7276 59.8054L24.084 57.8616L33.55 40L43.0107 57.8851L42.9111 57.9854L39.2727 59.8068H39.2741ZM35.7145 52.6004L33.5176 48.1177L31.3841 52.6004H35.7131H35.7145Z" fill="var(--fill-0, #151515)"/>
<path id="Vector_4" d="M61.7366 40.9086V54.1274L61.8336 54.2251H68.4562V58.3823H57.6016V40.9086H61.7366Z" fill="var(--fill-0, #151515)"/>
<path id="Vector_5" d="M51.9771 40.9087H47.7773V58.3836H51.9771V40.9087Z" fill="var(--fill-0, #151515)"/>
</g>
</g>
<defs>
<linearGradient id="paint0_linear_21_205" x1="46.1997" y1="-6214.48" x2="166.626" y2="12981.9" gradientUnits="userSpaceOnUse">
<stop stop-color="#115190" stop-opacity="0"/>
<stop offset="0.3125" stop-color="#115190"/>
</linearGradient>
<clipPath id="clip0_21_205">
<rect width="92.4" height="19.95" fill="white" transform="translate(0 40)"/>
</clipPath>
</defs>
</svg>
