<svg preserveAspectRatio="none" width="100%" height="100%" overflow="visible" style="display: block;" viewBox="0 0 24 24" fill="none" xmlns="http://www.w3.org/2000/svg">
<g id="streamline-pixel:interface-essential-signin-login" clip-path="url(#clip0_21_191)">
<path id="Vector" d="M17.1427 7.18863V8.32863H15.9952V9.47613H14.8552V10.6161H13.7152V12.9036H14.8552V14.0436H15.9952V15.1911H17.1427V16.3311H18.2827V12.9036H22.8577V10.6161H18.2827V7.18863H17.1427ZM15.9952 18.6186H17.1427V20.9061H15.9952V18.6186ZM15.9952 1.47363H17.1427V4.90113H15.9952V1.47363ZM11.4277 23.1861V22.0461H15.9952V20.9061H11.4277V6.04863H10.2877V23.1861H11.4277ZM6.85266 23.1861H10.2877V24.3336H6.85266V23.1861ZM8.00016 12.9036H9.14016V15.1911H8.00016V12.9036ZM8.00016 4.90113H10.2877V6.04863H8.00016V4.90113ZM4.57266 22.0461H6.85266V23.1861H4.57266V22.0461ZM5.71266 3.76113H8.00016V4.90113H5.71266V3.76113ZM2.28516 20.9061H4.57266V22.0461H2.28516V20.9061ZM3.42516 2.62113H5.71266V3.76113H3.42516V2.62113Z" fill="var(--fill-0, #1A75DA)"/>
<path id="Vector_2" d="M2.28063 0.331055V1.47105H1.14062V20.9036H2.28063V2.61855H3.42062V1.47105H15.9906V0.331055H2.28063Z" fill="var(--fill-0, #1A75DA)"/>
</g>
<defs>
<clipPath id="clip0_21_191">
<rect width="24" height="24" fill="white"/>
</clipPath>
</defs>
</svg>
