<svg preserveAspectRatio="none" width="100%" height="100%" overflow="visible" style="display: block;" viewBox="0 0 91.676 17.63" fill="none" xmlns="http://www.w3.org/2000/svg">
<g id="&#208;&#183;&#208;&#176;&#208;&#178;&#208;&#176;&#208;&#189;&#209;&#130;&#208;&#176;&#208;&#182;&#208;&#181;&#208;&#189;&#208;&#189;&#209;&#143; 1" clip-path="url(#clip0_21_230)">
<path id="Vector" d="M84.2393 17.6269C80.7718 17.6269 78.5546 15.9326 77.6348 13.4397L80.8898 11.5034C81.4794 12.9072 82.4938 13.8511 84.3573 13.8511C86.1499 13.8511 86.5981 13.125 86.5981 12.4715C86.5981 11.4308 85.6546 11.0193 83.1778 10.3174C80.7247 9.61554 78.3187 8.40539 78.3187 5.16216C78.3187 1.89469 81.0078 0.00683594 83.8619 0.00683594C86.5744 0.00683594 88.6973 1.33802 89.9003 3.83097L86.7161 5.74302C86.1499 4.53287 85.3715 3.78255 83.8619 3.78255C82.6824 3.78255 82.0928 4.38762 82.0928 5.06534C82.0928 5.83984 82.4938 6.37231 85.0649 7.17102C87.5652 7.94553 90.3722 8.84104 90.3722 12.4231C90.3722 15.6906 87.8246 17.6269 84.2393 17.6269Z" fill="var(--fill-0, #009F95)"/>
<path id="Vector_2" d="M72.1036 0.344238H75.8777V17.2866H73.0472L66.6784 8.0893V17.2866H62.9043V0.344238H65.735L72.1036 9.54149V0.344238Z" fill="var(--fill-0, #009F95)"/>
<path id="Vector_3" d="M53.118 0.344238C57.6705 0.344238 61.1378 4.02314 61.1378 8.81541C61.1378 13.6076 57.6705 17.2866 53.118 17.2866H48.1719V0.344238H53.118ZM53.118 13.5593C55.7125 13.5593 57.5054 11.7198 57.5054 8.81541C57.5054 5.911 55.7125 4.07154 53.118 4.07154H51.9459V13.5593H53.118Z" fill="var(--fill-0, #009F95)"/>
<path id="Vector_4" d="M42.869 0.344238H46.4071V17.2866H42.869V16.149C42.0905 17.0687 40.9347 17.6254 39.3543 17.6254C36.2644 17.6254 33.7168 14.842 33.7168 11.2357C33.7168 7.62944 36.2644 4.84607 39.3543 4.84607C40.9347 4.84607 42.0905 5.40272 42.869 6.32247V0.344238ZM40.0619 14.1885C41.6897 14.1885 42.869 13.051 42.869 11.2357C42.869 9.42048 41.6897 8.28294 40.0619 8.28294C38.4344 8.28294 37.2552 9.42048 37.2552 11.2357C37.2552 13.051 38.4344 14.1885 40.0619 14.1885Z" fill="var(--fill-0, white)"/>
<path id="Vector_5" d="M22.1676 3.51723V0.612817H29.2439V3.51723H22.1676ZM25.7057 17.6278C22.2383 17.6278 19.4549 14.8444 19.4549 11.2381C19.4549 7.63178 22.2383 4.84841 25.7057 4.84841C29.1731 4.84841 31.9567 7.63178 31.9567 11.2381C31.9567 14.8444 29.1731 17.6278 25.7057 17.6278ZM25.7057 14.0941C27.239 14.0941 28.4183 12.9565 28.4183 11.2381C28.4183 9.51965 27.239 8.38208 25.7057 8.38208C24.1725 8.38208 22.9931 9.51965 22.9931 11.2381C22.9931 12.9565 24.1725 14.0941 25.7057 14.0941Z" fill="var(--fill-0, white)"/>
<path id="Vector_6" d="M13.2093 4.84814C15.9219 4.84814 17.691 6.8328 17.691 9.85821V17.2886H14.1528V10.1729C14.1528 8.9627 13.5867 8.1882 12.4544 8.1882C11.2751 8.1882 10.6146 9.03531 10.6146 10.4633V17.2886H7.07639V10.1729C7.07639 8.9627 6.51029 8.1882 5.37807 8.1882C4.19866 8.1882 3.5382 9.03531 3.5382 10.4633V17.2886H0V5.18697H3.5382V6.30033C4.08073 5.47741 5.11859 4.84814 6.69898 4.84814C8.09068 4.84814 9.12854 5.42901 9.78902 6.44555C10.4495 5.47741 11.5345 4.84814 13.2093 4.84814Z" fill="var(--fill-0, white)"/>
</g>
<defs>
<clipPath id="clip0_21_230">
<rect width="91.676" height="17.63" fill="white"/>
</clipPath>
</defs>
</svg>
