<svg preserveAspectRatio="none" width="100%" height="100%" overflow="visible" style="display: block;" viewBox="0 0 91.676 17.63" fill="none" xmlns="http://www.w3.org/2000/svg">
<g id="&#208;&#183;&#208;&#176;&#208;&#178;&#208;&#176;&#208;&#189;&#209;&#130;&#208;&#176;&#208;&#182;&#208;&#181;&#208;&#189;&#208;&#189;&#209;&#143; 1" clip-path="url(#clip0_21_137)">
<path id="Vector" d="M84.2413 17.6269C80.7737 17.6269 78.5566 15.9326 77.6367 13.4397L80.8917 11.5034C81.4814 12.9072 82.4958 13.8511 84.3592 13.8511C86.1519 13.8511 86.6001 13.125 86.6001 12.4715C86.6001 11.4308 85.6565 11.0193 83.1797 10.3174C80.7266 9.61554 78.3206 8.40539 78.3206 5.16216C78.3206 1.89469 81.0097 0.00683594 83.8639 0.00683594C86.5764 0.00683594 88.6993 1.33802 89.9022 3.83097L86.7181 5.74302C86.1519 4.53287 85.3734 3.78255 83.8639 3.78255C82.6843 3.78255 82.0947 4.38762 82.0947 5.06534C82.0947 5.83984 82.4958 6.37231 85.0669 7.17102C87.5671 7.94553 90.3742 8.84104 90.3742 12.4231C90.3742 15.6906 87.8265 17.6269 84.2413 17.6269Z" fill="var(--fill-0, #009F95)"/>
<path id="Vector_2" d="M72.1017 0.344238H75.8757V17.2866H73.0453L66.6764 8.0893V17.2866H62.9023V0.344238H65.7331L72.1017 9.54149V0.344238Z" fill="var(--fill-0, #009F95)"/>
<path id="Vector_3" d="M53.118 0.344238C57.6705 0.344238 61.1378 4.02314 61.1378 8.81541C61.1378 13.6076 57.6705 17.2866 53.118 17.2866H48.1719V0.344238H53.118ZM53.118 13.5593C55.7125 13.5593 57.5054 11.7198 57.5054 8.81541C57.5054 5.911 55.7125 4.07154 53.118 4.07154H51.9459V13.5593H53.118Z" fill="var(--fill-0, #009F95)"/>
<path id="Vector_4" d="M42.867 0.344238H46.4051V17.2866H42.867V16.149C42.0886 17.0687 40.9327 17.6254 39.3524 17.6254C36.2625 17.6254 33.7148 14.842 33.7148 11.2357C33.7148 7.62944 36.2625 4.84607 39.3524 4.84607C40.9327 4.84607 42.0886 5.40272 42.867 6.32247V0.344238ZM40.06 14.1885C41.6878 14.1885 42.867 13.051 42.867 11.2357C42.867 9.42048 41.6878 8.28294 40.06 8.28294C38.4325 8.28294 37.2532 9.42048 37.2532 11.2357C37.2532 13.051 38.4325 14.1885 40.06 14.1885Z" fill="var(--fill-0, #151515)"/>
<path id="Vector_5" d="M22.1658 3.5172V0.612793H29.2421V3.5172H22.1658ZM25.7039 17.6277C22.2365 17.6277 19.4531 14.8443 19.4531 11.2381C19.4531 7.63176 22.2365 4.84839 25.7039 4.84839C29.1713 4.84839 31.9549 7.63176 31.9549 11.2381C31.9549 14.8443 29.1713 17.6277 25.7039 17.6277ZM25.7039 14.094C27.2372 14.094 28.4165 12.9565 28.4165 11.2381C28.4165 9.51962 27.2372 8.38205 25.7039 8.38205C24.1707 8.38205 22.9913 9.51962 22.9913 11.2381C22.9913 12.9565 24.1707 14.094 25.7039 14.094Z" fill="var(--fill-0, #151515)"/>
<path id="Vector_6" d="M13.2093 4.84814C15.9219 4.84814 17.691 6.8328 17.691 9.85821V17.2886H14.1528V10.1729C14.1528 8.9627 13.5867 8.1882 12.4544 8.1882C11.2751 8.1882 10.6146 9.03531 10.6146 10.4633V17.2886H7.07639V10.1729C7.07639 8.9627 6.51029 8.1882 5.37807 8.1882C4.19866 8.1882 3.5382 9.03531 3.5382 10.4633V17.2886H0V5.18697H3.5382V6.30033C4.08073 5.47741 5.11859 4.84814 6.69898 4.84814C8.09068 4.84814 9.12854 5.42901 9.78902 6.44555C10.4495 5.47741 11.5345 4.84814 13.2093 4.84814Z" fill="var(--fill-0, #151515)"/>
</g>
<defs>
<clipPath id="clip0_21_137">
<rect width="91.676" height="17.63" fill="white"/>
</clipPath>
</defs>
</svg>
