<svg preserveAspectRatio="none" width="100%" height="100%" overflow="visible" style="display: block;" viewBox="0 0 28 28" fill="none" xmlns="http://www.w3.org/2000/svg">
<g id="fluent:database-link-24-filled">
<path id="Vector" d="M13.9993 11.6666C19.1537 11.6666 23.3327 9.57825 23.3327 6.99992C23.3327 4.42159 19.1537 2.33325 13.9993 2.33325C8.84502 2.33325 4.66602 4.42159 4.66602 6.99992C4.66602 9.57825 8.84502 11.6666 13.9993 11.6666ZM21.382 11.8649C22.0871 11.5188 22.743 11.0806 23.3327 10.5618V15.2354C23.0432 15.1905 22.7507 15.1675 22.4577 15.1666H18.3743C17.1407 15.1664 15.9423 15.5777 14.969 16.3356C13.9956 17.0934 13.3029 18.1543 13.0006 19.3503C12.6983 20.5463 12.8037 21.809 13.3002 22.9383C13.7966 24.0676 14.6556 24.999 15.7412 25.5849C15.1757 25.6394 14.5951 25.6666 13.9993 25.6666C8.84502 25.6666 4.66602 23.5783 4.66602 20.9999V10.5618C5.25565 11.0806 5.91161 11.5188 6.61668 11.8649C8.59768 12.8543 11.2087 13.4166 13.9993 13.4166C16.79 13.4166 19.401 12.8543 21.382 11.8649ZM26.8327 20.7083C26.8327 19.5479 26.3717 18.4351 25.5513 17.6147C24.7308 16.7942 23.618 16.3333 22.4577 16.3333L22.3387 16.3414C22.1191 16.3716 21.9191 16.4841 21.7792 16.6561C21.6393 16.828 21.5699 17.0467 21.585 17.2679C21.6001 17.4891 21.6986 17.6963 21.8606 17.8476C22.0226 17.999 22.236 18.0832 22.4577 18.0833L22.6373 18.0891C23.3173 18.1345 23.953 18.4425 24.4099 18.9481C24.8669 19.4536 25.1093 20.1171 25.086 20.7981C25.0626 21.4792 24.7754 22.1245 24.2849 22.5976C23.7944 23.0707 23.1391 23.3345 22.4577 23.3333L22.4542 23.3391L22.3352 23.3473C22.1149 23.3775 21.9144 23.4905 21.7744 23.6632C21.6345 23.8359 21.5655 24.0555 21.5815 24.2772C21.5976 24.499 21.6974 24.7063 21.8608 24.8571C22.0242 25.0079 22.2389 25.0908 22.4612 25.0891V25.0833L22.6945 25.0774C23.8123 25.0168 24.8643 24.5301 25.6341 23.7173C26.4039 22.9046 26.8328 21.8277 26.8327 20.7083ZM19.2493 17.2083C19.2493 16.9762 19.1572 16.7536 18.9931 16.5895C18.829 16.4254 18.6064 16.3333 18.3743 16.3333L18.141 16.3391C17.0011 16.398 15.9293 16.9 15.1544 17.7381C14.3795 18.5762 13.9628 19.6839 13.9933 20.825C14.0237 21.966 14.4989 23.0499 15.3174 23.8455C16.1359 24.6411 17.2329 25.0852 18.3743 25.0833L18.4933 25.0751C18.713 25.0449 18.9129 24.9324 19.0528 24.7604C19.1927 24.5885 19.2622 24.3698 19.247 24.1486C19.2319 23.9274 19.1334 23.7202 18.9714 23.5689C18.8094 23.4175 18.596 23.3333 18.3743 23.3333L18.1947 23.3274C17.5147 23.282 16.8791 22.974 16.4221 22.4684C15.9652 21.9629 15.7227 21.2994 15.7461 20.6184C15.7694 19.9373 16.0567 19.292 16.5472 18.8189C17.0376 18.3458 17.6929 18.082 18.3743 18.0833L18.4933 18.0751C18.7028 18.0463 18.8948 17.9427 19.0338 17.7833C19.1728 17.624 19.2493 17.4197 19.2493 17.2083ZM23.3327 20.7083C23.3327 20.4762 23.2405 20.2536 23.0764 20.0895C22.9123 19.9254 22.6897 19.8333 22.4577 19.8333H18.3743L18.2553 19.8414C18.0357 19.8716 17.8358 19.9841 17.6959 20.1561C17.5559 20.328 17.4865 20.5467 17.5017 20.7679C17.5168 20.9891 17.6153 21.1963 17.7773 21.3476C17.9393 21.499 18.1527 21.5832 18.3743 21.5833H22.4577L22.5767 21.5751C22.7862 21.5463 22.9781 21.4427 23.1171 21.2833C23.2561 21.124 23.3327 20.9197 23.3327 20.7083Z" fill="var(--fill-0, #449CF8)"/>
</g>
</svg>
