<svg preserveAspectRatio="none" width="100%" height="100%" overflow="visible" style="display: block;" viewBox="0 0 88 19" fill="none" xmlns="http://www.w3.org/2000/svg">
<g id="mailX-1 1" clip-path="url(#clip0_21_252)">
<path id="Vector" d="M18.8924 1.06924V17.6191L18.8001 17.712H15.0467L14.9544 17.6191V5.05945L14.862 4.96645H11.3845C11.4042 5.02721 11.3229 5.10037 11.3229 5.12144V17.7109H7.50797L7.4464 4.96645H3.96887L3.87651 5.05945V17.7109H0V1.06924H18.8924Z" fill="var(--fill-0, white)"/>
<path id="Vector_2" d="M73.9502 1.67024C75.5115 3.25492 77.0853 4.84704 78.6578 6.43171L78.8143 6.52346L85.1832 0.23436L85.3396 0.267839L87.9563 2.96476L81.681 9.34562L88.0007 15.7699L85.2152 18.571L78.8697 12.2186L72.4502 18.5622L69.7559 15.9125L69.7979 15.6446L76.0091 9.3915L69.7461 3.01561L69.7979 2.83953L72.4293 0.219481C72.5057 0.190961 72.5476 0.23188 72.6042 0.27156C72.9836 0.526992 73.5956 1.31065 73.9526 1.67272L73.9502 1.67024Z" fill="var(--fill-0, #0179FF)"/>
<path id="Vector_3" d="M37.4042 18.8636L35.8219 15.5231H28.1475L26.4076 18.8623L22.9375 17.0111L31.9527 0L40.963 17.0334L40.8681 17.1289L37.4029 18.8636H37.4042ZM34.0141 12.0004L31.9218 7.73118L29.89 12.0004H34.0128H34.0141Z" fill="var(--fill-0, white)"/>
<path id="Vector_4" d="M58.7975 0.865447V13.4548L58.8899 13.5478H65.1971V17.5071H54.8594V0.865447H58.7975Z" fill="var(--fill-0, white)"/>
<path id="Vector_5" d="M49.5038 0.865447H45.504V17.5082H49.5038V0.865447Z" fill="var(--fill-0, white)"/>
</g>
<defs>
<clipPath id="clip0_21_252">
<rect width="88" height="19" fill="white"/>
</clipPath>
</defs>
</svg>
