<svg preserveAspectRatio="none" width="100%" height="100%" overflow="visible" style="display: block;" viewBox="0 0 92.4 59.95" fill="none" xmlns="http://www.w3.org/2000/svg">
<g id="Frame 2087331324">
<path id="Line 45" d="M46.2 32L49.0868 27L43.3133 27L46.2 32ZM46.2 26L46.7 26L46.7 22L46.2 22L45.7 22L45.7 26L46.2 26ZM46.2 18L46.7 18L46.7 14L46.2 14L45.7 14L45.7 18L46.2 18ZM46.2 10L46.7 10L46.7 6L46.2 6L45.7 6L45.7 10L46.2 10ZM46.2 2L46.7 2L46.7 0L46.2 2.18557e-08L45.7 4.37114e-08L45.7 2L46.2 2Z" fill="url(#paint0_linear_21_66)"/>
<g id="mailX-1 1" clip-path="url(#clip0_21_66)">
<path id="Vector" d="M19.8363 41.1229V58.5002L19.7393 58.5978H15.7983L15.7013 58.5002V45.3126L15.6043 45.215H11.9529C11.9736 45.2788 11.8883 45.3556 11.8883 45.3777V58.5966H7.88259L7.81794 45.215H4.16653L4.06955 45.3126V58.5966H-0.00078125V41.1229H19.8363Z" fill="var(--fill-0, white)"/>
<path id="Vector_2" d="M77.647 41.7538C79.2863 43.4178 80.9388 45.0895 82.5899 46.7534L82.7542 46.8497L89.4415 40.2462L89.6058 40.2813L92.3533 43.1131L85.7643 49.813L92.3999 56.5585L89.4752 59.4996L82.8124 52.8296L76.0719 59.4905L73.243 56.7082L73.287 56.427L79.8088 49.8612L73.2326 43.1665L73.287 42.9816L76.05 40.2306C76.1302 40.2006 76.1742 40.2436 76.2336 40.2852C76.632 40.5534 77.2746 41.3763 77.6494 41.7565L77.647 41.7538Z" fill="var(--fill-0, #0179FF)"/>
<path id="Vector_3" d="M39.2737 59.8069L37.6122 56.2994H29.5541L27.7272 59.8055L24.0836 57.8617L33.5496 40.0001L43.0103 57.8852L42.9108 57.9855L39.2723 59.8069H39.2737ZM35.7141 52.6005L33.5172 48.1178L31.3837 52.6005H35.7127H35.7141Z" fill="var(--fill-0, white)"/>
<path id="Vector_4" d="M61.7366 40.9086V54.1274L61.8336 54.2251H68.4562V58.3823H57.6016V40.9086H61.7366Z" fill="var(--fill-0, white)"/>
<path id="Vector_5" d="M51.978 40.9086H47.7783V58.3835H51.978V40.9086Z" fill="var(--fill-0, white)"/>
</g>
</g>
<defs>
<linearGradient id="paint0_linear_21_66" x1="46.1997" y1="-6214.48" x2="166.626" y2="12981.9" gradientUnits="userSpaceOnUse">
<stop stop-color="#449CF8" stop-opacity="0"/>
<stop offset="0.3125" stop-color="#449CF8"/>
</linearGradient>
<clipPath id="clip0_21_66">
<rect width="92.4" height="19.95" fill="white" transform="translate(0 40)"/>
</clipPath>
</defs>
</svg>
