<svg preserveAspectRatio="none" width="100%" height="100%" overflow="visible" style="display: block;" viewBox="0 0 96.2598 58.5115" fill="none" xmlns="http://www.w3.org/2000/svg">
<g id="Frame 2087331325">
<path id="Line 45" d="M48.1299 32L51.0167 27L45.2431 27L48.1299 32ZM48.1299 26L48.6299 26L48.6299 22L48.1299 22L47.6299 22L47.6299 26L48.1299 26ZM48.1299 18L48.6299 18L48.6299 14L48.1299 14L47.6299 14L47.6299 18L48.1299 18ZM48.1299 10L48.6299 10L48.6299 6L48.1299 6L47.6299 6L47.6299 10L48.1299 10ZM48.1299 2L48.6299 2L48.6299 0L48.1299 2.18557e-08L47.6299 4.37114e-08L47.6299 2L48.1299 2Z" fill="url(#paint0_linear_21_181)"/>
<g id="&#208;&#183;&#208;&#176;&#208;&#178;&#208;&#176;&#208;&#189;&#209;&#130;&#208;&#176;&#208;&#182;&#208;&#181;&#208;&#189;&#208;&#189;&#209;&#143; 1" clip-path="url(#clip0_21_181)">
<path id="Vector" d="M88.4504 58.5084C84.8095 58.5084 82.4815 56.7294 81.5156 54.1118L84.9334 52.0787C85.5525 53.5527 86.6176 54.5439 88.5743 54.5439C90.4565 54.5439 90.9272 53.7815 90.9272 53.0953C90.9272 52.0025 89.9364 51.5705 87.3358 50.8335C84.76 50.0965 82.2337 48.8258 82.2337 45.4204C82.2337 41.9896 85.0573 40.0073 88.0541 40.0073C90.9023 40.0073 93.1313 41.4051 94.3944 44.0227L91.051 46.0303C90.4565 44.7597 89.6391 43.9718 88.0541 43.9718C86.8156 43.9718 86.1965 44.6072 86.1965 45.3188C86.1965 46.132 86.6176 46.6911 89.3173 47.5297C91.9425 48.343 94.8899 49.2833 94.8899 53.0445C94.8899 56.4753 92.2149 58.5084 88.4504 58.5084Z" fill="var(--fill-0, #14A495)"/>
<path id="Vector_2" d="M75.7079 40.3616H79.6707V58.1511H76.6987L70.0114 48.4939V58.1511H66.0486V40.3616H69.0209L75.7079 50.0187V40.3616Z" fill="var(--fill-0, #14A495)"/>
<path id="Vector_3" d="M55.7735 40.3618C60.5537 40.3618 64.1943 44.2247 64.1943 49.2565C64.1943 54.2884 60.5537 58.1513 55.7735 58.1513H50.5801V40.3618H55.7735ZM55.7735 54.2376C58.4978 54.2376 60.3803 52.3061 60.3803 49.2565C60.3803 46.2069 58.4978 44.2755 55.7735 44.2755H54.5428V54.2376H55.7735Z" fill="var(--fill-0, #14A495)"/>
<path id="Vector_4" d="M45.0121 40.3618H48.7272V58.1513H45.0121V56.9568C44.1948 57.9225 42.9811 58.5071 41.3217 58.5071C38.0774 58.5071 35.4023 55.5845 35.4023 51.7979C35.4023 48.0113 38.0774 45.0887 41.3217 45.0887C42.9811 45.0887 44.1948 45.6732 45.0121 46.639V40.3618ZM42.0648 54.8983C43.7739 54.8983 45.0121 53.7039 45.0121 51.7979C45.0121 49.8919 43.7739 48.6975 42.0648 48.6975C40.3559 48.6975 39.1176 49.8919 39.1176 51.7979C39.1176 53.7039 40.3559 54.8983 42.0648 54.8983Z" fill="var(--fill-0, #151515)"/>
<path id="Vector_5" d="M23.276 43.6932V40.6436H30.7062V43.6932H23.276ZM26.9911 58.5092C23.3503 58.5092 20.4277 55.5867 20.4277 51.8001C20.4277 48.0135 23.3503 45.0909 26.9911 45.0909C30.6318 45.0909 33.5546 48.0135 33.5546 51.8001C33.5546 55.5867 30.6318 58.5092 26.9911 58.5092ZM26.9911 54.7989C28.6011 54.7989 29.8393 53.6044 29.8393 51.8001C29.8393 49.9957 28.6011 48.8013 26.9911 48.8013C25.3812 48.8013 24.1429 49.9957 24.1429 51.8001C24.1429 53.6044 25.3812 54.7989 26.9911 54.7989Z" fill="var(--fill-0, #151515)"/>
<path id="Vector_6" d="M13.8697 45.0908C16.718 45.0908 18.5755 47.1747 18.5755 50.3514V58.1533H14.8604V50.6818C14.8604 49.4111 14.266 48.5979 13.0772 48.5979C11.8388 48.5979 11.1453 49.4873 11.1453 50.9867V58.1533H7.43021V50.6818C7.43021 49.4111 6.8358 48.5979 5.64697 48.5979C4.40859 48.5979 3.71511 49.4873 3.71511 50.9867V58.1533H0V45.4466H3.71511V46.6156C4.28477 45.7515 5.37452 45.0908 7.03393 45.0908C8.49521 45.0908 9.58497 45.7007 10.2785 46.7681C10.972 45.7515 12.1113 45.0908 13.8697 45.0908Z" fill="var(--fill-0, #151515)"/>
</g>
</g>
<defs>
<linearGradient id="paint0_linear_21_181" x1="48.1296" y1="-6214.48" x2="168.556" y2="12981.9" gradientUnits="userSpaceOnUse">
<stop stop-color="#115190" stop-opacity="0"/>
<stop offset="0.3125" stop-color="#115190"/>
</linearGradient>
<clipPath id="clip0_21_181">
<rect width="96.2598" height="18.5115" fill="white" transform="translate(0 40)"/>
</clipPath>
</defs>
</svg>
