<svg width="122" height="25" viewBox="0 0 122 25" fill="none" xmlns="http://www.w3.org/2000/svg">
<g clip-path="url(#clip0_11_1942)">
<path d="M12.0391 24.0781C18.6881 24.0781 24.0781 18.6881 24.0781 12.0391C24.0781 5.39007 18.6881 0 12.0391 0C5.39007 0 0 5.39007 0 12.0391C0 18.6881 5.39007 24.0781 12.0391 24.0781Z" fill="#151515"/>
<path d="M9.35445 7.42446L8.50795 5.9668C7.70393 6.43509 7.00085 7.05832 6.43947 7.80036C5.87809 8.54239 5.46958 9.38847 5.23762 10.2896C5.00566 11.1906 4.95485 12.1288 5.08815 13.0497C5.22145 13.9705 5.53621 14.8558 6.01418 15.6541L7.46168 14.7873C7.09871 14.1805 6.85971 13.5077 6.75851 12.8079C6.65731 12.1081 6.69592 11.3952 6.87211 10.7105C7.04831 10.0257 7.35857 9.38267 7.78496 8.81863C8.21135 8.25458 8.74538 7.78072 9.35614 7.42446H9.35445Z" fill="white"/>
<path d="M17.1819 13.502C16.9654 14.2664 16.5812 14.9729 16.0571 15.57C15.5331 16.1671 14.8824 16.6398 14.1526 16.9537C13.4227 17.2675 12.632 17.4146 11.8381 17.3842C11.0442 17.3538 10.2671 17.1466 9.56341 16.7779L8.78125 18.2745C9.70705 18.7576 10.7288 19.0284 11.7723 19.0673C12.8158 19.1062 13.8549 18.9123 14.8141 18.4995C15.7734 18.0868 16.6286 17.4656 17.3178 16.6811C18.007 15.8967 18.5129 14.9685 18.7987 13.9641L17.1819 13.502Z" fill="white"/>
<path d="M12.8902 15.2575C12.1895 15.4424 11.4476 15.3935 10.7772 15.1183C10.1068 14.8431 9.54451 14.3566 9.17578 13.7327C8.80705 13.1088 8.65201 12.3817 8.73421 11.6617C8.81641 10.9416 9.13135 10.2681 9.63121 9.74342L8.86936 9.02051C8.21276 9.71128 7.79939 10.5974 7.69198 11.5443C7.58456 12.4913 7.78896 13.4475 8.27416 14.2677C8.75936 15.088 9.49888 15.7277 10.3805 16.0896C11.2622 16.4515 12.2378 16.516 13.1594 16.2733L12.8902 15.2575Z" fill="white"/>
<path d="M12.0422 20.2759C10.4135 20.2759 8.82142 19.793 7.46723 18.8881C6.11304 17.9833 5.05757 16.6972 4.4343 15.1925C3.81104 13.6878 3.64796 12.0321 3.9657 10.4347C4.28344 8.83732 5.06772 7.37004 6.21937 6.21839C7.37101 5.06674 8.8383 4.28246 10.4357 3.96472C12.0331 3.64699 13.6888 3.81006 15.1935 4.43333C16.6982 5.05659 17.9843 6.11206 18.8891 7.46625C19.794 8.82044 20.2769 10.4125 20.2769 12.0412C20.2769 14.2252 19.4093 16.3197 17.865 17.864C16.3207 19.4083 14.2262 20.2759 12.0422 20.2759ZM22.8773 12.0412C22.8773 9.89822 22.2419 7.80336 21.0513 6.02152C19.8607 4.23969 18.1685 2.85092 16.1886 2.03084C14.2088 1.21075 12.0302 0.996177 9.92836 1.41425C7.82654 1.83233 5.8959 2.86428 4.38058 4.3796C2.86526 5.89493 1.83331 7.82557 1.41523 9.92738C0.997154 12.0292 1.21173 14.2078 2.03181 16.1876C2.8519 18.1675 4.24067 19.8597 6.0225 21.0503C7.80434 22.2409 9.8992 22.8764 12.0422 22.8764C14.9159 22.8764 17.6718 21.7348 19.7038 19.7028C21.7358 17.6708 22.8773 14.9149 22.8773 12.0412Z" fill="white"/>
</g>
<path d="M37.7253 13.8243H34.636V11.5116H37.7253C38.1463 11.5116 38.4876 11.4405 38.7493 11.2983C39.0111 11.156 39.2016 10.9597 39.3211 10.7094C39.4463 10.4534 39.5089 10.1661 39.5089 9.8475C39.5089 9.50614 39.4463 9.19039 39.3211 8.90024C39.2016 8.61008 39.0111 8.37682 38.7493 8.20046C38.4876 8.0184 38.1463 7.92737 37.7253 7.92737H35.7625V18.04H32.7671V5.61469H37.7253C38.7209 5.61469 39.5771 5.79674 40.294 6.16085C41.0165 6.52497 41.5712 7.02562 41.9581 7.66282C42.345 8.29433 42.5384 9.01687 42.5384 9.83043C42.5384 10.6326 42.345 11.3324 41.9581 11.9298C41.5712 12.5271 41.0165 12.9937 40.294 13.3293C39.5771 13.6593 38.7209 13.8243 37.7253 13.8243ZM43.5369 13.5171V13.3379C43.5369 12.6608 43.6336 12.0379 43.827 11.4689C44.0205 10.8943 44.3049 10.3965 44.6804 9.97551C45.0559 9.5545 45.5196 9.22737 46.0714 8.99411C46.6233 8.75516 47.2605 8.63568 47.983 8.63568C48.7113 8.63568 49.3513 8.75516 49.9032 8.99411C50.4607 9.22737 50.9272 9.5545 51.3027 9.97551C51.6782 10.3965 51.9627 10.8943 52.1561 11.4689C52.3495 12.0379 52.4463 12.6608 52.4463 13.3379V13.5171C52.4463 14.1884 52.3495 14.8114 52.1561 15.386C51.9627 15.9549 51.6782 16.4527 51.3027 16.8794C50.9272 17.3004 50.4635 17.6276 49.9117 17.8608C49.3598 18.0941 48.7226 18.2107 48.0001 18.2107C47.2776 18.2107 46.6375 18.0941 46.08 17.8608C45.5224 17.6276 45.0559 17.3004 44.6804 16.8794C44.3049 16.4527 44.0205 15.9549 43.827 15.386C43.6336 14.8114 43.5369 14.1884 43.5369 13.5171ZM46.4128 13.3379V13.5171C46.4128 13.8641 46.4384 14.1884 46.4896 14.4899C46.5408 14.7915 46.6261 15.056 46.7456 15.2836C46.8651 15.5055 47.0272 15.679 47.232 15.8042C47.4369 15.9293 47.6929 15.9919 48.0001 15.9919C48.3016 15.9919 48.552 15.9293 48.7511 15.8042C48.9559 15.679 49.118 15.5055 49.2375 15.2836C49.357 15.056 49.4423 14.7915 49.4935 14.4899C49.5447 14.1884 49.5703 13.8641 49.5703 13.5171V13.3379C49.5703 13.0022 49.5447 12.6864 49.4935 12.3906C49.4423 12.0891 49.357 11.8245 49.2375 11.5969C49.118 11.3637 48.9559 11.1816 48.7511 11.0508C48.5463 10.9199 48.2902 10.8545 47.983 10.8545C47.6815 10.8545 47.4283 10.9199 47.2235 11.0508C47.0244 11.1816 46.8651 11.3637 46.7456 11.5969C46.6261 11.8245 46.5408 12.0891 46.4896 12.3906C46.4384 12.6864 46.4128 13.0022 46.4128 13.3379ZM56.6279 11.0934V18.04H53.7519V8.80636H56.4401L56.6279 11.0934ZM59.3587 8.73809L59.3075 11.4092C59.1937 11.3978 59.0401 11.3836 58.8467 11.3665C58.6532 11.3495 58.4911 11.3409 58.3602 11.3409C58.0246 11.3409 57.7344 11.3808 57.4898 11.4604C57.2508 11.5344 57.0517 11.6482 56.8924 11.8018C56.7388 11.9497 56.625 12.1374 56.5511 12.365C56.4828 12.5926 56.4515 12.8571 56.4572 13.1587L55.9366 12.8173C55.9366 12.1972 55.9964 11.6339 56.1158 11.1276C56.241 10.6155 56.4174 10.1746 56.6449 9.80483C56.8725 9.42934 57.1484 9.14203 57.4727 8.9429C57.797 8.73809 58.1611 8.63568 58.5651 8.63568C58.7073 8.63568 58.8467 8.64422 58.9832 8.66129C59.1254 8.67835 59.2506 8.70396 59.3587 8.73809ZM65.6397 8.80636V10.8033H60.0756V8.80636H65.6397ZM61.2447 6.51074H64.1206V15.0276C64.1206 15.2722 64.1491 15.4628 64.206 15.5993C64.2629 15.7302 64.3596 15.8241 64.4961 15.881C64.6383 15.9322 64.8261 15.9578 65.0594 15.9578C65.2243 15.9578 65.3609 15.9549 65.469 15.9492C65.5771 15.9379 65.6795 15.9236 65.7762 15.9066V17.9632C65.5316 18.0429 65.2755 18.1026 65.0081 18.1424C64.7408 18.188 64.4563 18.2107 64.1548 18.2107C63.5403 18.2107 63.0141 18.114 62.576 17.9206C62.1436 17.7271 61.8136 17.4228 61.5861 17.0074C61.3585 16.5921 61.2447 16.0516 61.2447 15.386V6.51074ZM69.6847 10.7606V18.04H66.8088V8.80636H69.5055L69.6847 10.7606ZM69.3348 13.1074L68.6777 13.1245C68.6777 12.4759 68.7545 11.8786 68.9081 11.3324C69.0618 10.7862 69.2893 10.3112 69.5909 9.90724C69.8924 9.5033 70.2622 9.19039 70.7003 8.96851C71.144 8.74663 71.6561 8.63568 72.2364 8.63568C72.6403 8.63568 73.0073 8.69827 73.3372 8.82343C73.6672 8.9429 73.9517 9.1335 74.1906 9.3952C74.4296 9.65122 74.6116 9.98689 74.7368 10.4022C74.8676 10.8118 74.9331 11.3039 74.9331 11.8786V18.04H72.0571V12.2455C72.0571 11.853 72.0116 11.5571 71.9206 11.358C71.8353 11.1589 71.7101 11.0252 71.5451 10.9569C71.3801 10.8886 71.1782 10.8545 70.9392 10.8545C70.6889 10.8545 70.4642 10.9114 70.265 11.0252C70.0659 11.139 69.8952 11.2983 69.753 11.5031C69.6165 11.7022 69.5112 11.9383 69.4372 12.2114C69.369 12.4845 69.3348 12.7832 69.3348 13.1074ZM74.6088 13.1074L73.8066 13.1245C73.8066 12.4759 73.8777 11.8786 74.0199 11.3324C74.1679 10.7862 74.3869 10.3112 74.6771 9.90724C74.9729 9.5033 75.3399 9.19039 75.7779 8.96851C76.216 8.74663 76.7252 8.63568 77.3055 8.63568C77.7265 8.63568 78.1134 8.69827 78.4661 8.82343C78.8188 8.94859 79.1232 9.15056 79.3792 9.42934C79.6352 9.70811 79.8344 10.0779 79.9766 10.5387C80.1188 10.9939 80.19 11.5571 80.19 12.2285V18.04H77.3055V12.2285C77.3055 11.8473 77.26 11.56 77.169 11.3665C77.0836 11.1674 76.9585 11.0337 76.7935 10.9654C76.6285 10.8915 76.4322 10.8545 76.2046 10.8545C75.9315 10.8545 75.6954 10.9114 75.4963 11.0252C75.2972 11.139 75.1294 11.2983 74.9928 11.5031C74.862 11.7022 74.7652 11.9383 74.7027 12.2114C74.6401 12.4845 74.6088 12.7832 74.6088 13.1074ZM86.633 15.7188V11.9127C86.633 11.651 86.5961 11.4263 86.5221 11.2385C86.4481 11.0508 86.3315 10.9057 86.1722 10.8033C86.0129 10.6952 85.7996 10.6412 85.5322 10.6412C85.316 10.6412 85.1311 10.6781 84.9775 10.7521C84.8239 10.8261 84.7072 10.937 84.6276 11.0849C84.5479 11.2328 84.5081 11.4206 84.5081 11.6482H81.6322C81.6322 11.2215 81.7261 10.8261 81.9138 10.4619C82.1072 10.0921 82.3803 9.77069 82.7331 9.49761C83.0915 9.22452 83.5182 9.01402 84.0131 8.8661C84.5138 8.71249 85.0713 8.63568 85.6858 8.63568C86.4197 8.63568 87.074 8.758 87.6486 9.00264C88.2289 9.24728 88.6869 9.61424 89.0225 10.1035C89.3582 10.5871 89.526 11.1959 89.526 11.9298V15.7103C89.526 16.3133 89.5602 16.7713 89.6284 17.0842C89.6967 17.3915 89.7934 17.6617 89.9186 17.895V18.04H87.0341C86.8976 17.7556 86.7952 17.4085 86.7269 16.9989C86.6643 16.5836 86.633 16.1569 86.633 15.7188ZM86.9829 12.3991L87 13.9352H85.7284C85.4611 13.9352 85.2335 13.9722 85.0457 14.0462C84.8637 14.1201 84.7158 14.2225 84.602 14.3534C84.4939 14.4786 84.4142 14.6208 84.363 14.7801C84.3175 14.9394 84.2948 15.1072 84.2948 15.2836C84.2948 15.4543 84.3346 15.6079 84.4142 15.7444C84.4996 15.8753 84.6134 15.9777 84.7556 16.0516C84.8978 16.1256 85.0571 16.1626 85.2335 16.1626C85.5521 16.1626 85.8223 16.1028 86.0442 15.9834C86.2718 15.8582 86.4453 15.7074 86.5648 15.5311C86.6842 15.3547 86.744 15.1897 86.744 15.0361L87.3755 16.2138C87.2617 16.4414 87.1309 16.6718 86.9829 16.905C86.8407 17.1383 86.6615 17.3545 86.4453 17.5536C86.2348 17.747 85.9759 17.9063 85.6687 18.0315C85.3615 18.151 84.9888 18.2107 84.5508 18.2107C83.9818 18.2107 83.4584 18.0941 82.9805 17.8608C82.5083 17.6276 82.13 17.3033 81.8455 16.888C81.5611 16.467 81.4188 15.9834 81.4188 15.4372C81.4188 14.9593 81.5042 14.5326 81.6748 14.1571C81.8512 13.7816 82.1158 13.463 82.4685 13.2013C82.8212 12.9396 83.2707 12.7405 83.8169 12.6039C84.363 12.4674 85.0059 12.3991 85.7455 12.3991H86.9829ZM95.9606 15.4457C95.9606 15.2864 95.9065 15.1499 95.7984 15.0361C95.696 14.9166 95.514 14.8085 95.2523 14.7118C94.9906 14.6094 94.6236 14.507 94.1514 14.4046C93.702 14.3079 93.2781 14.1799 92.8799 14.0206C92.4873 13.8613 92.1431 13.6678 91.8473 13.4403C91.5514 13.2127 91.3182 12.9425 91.1475 12.6295C90.9825 12.3166 90.9 11.9582 90.9 11.5543C90.9 11.1617 90.9825 10.7919 91.1475 10.4449C91.3182 10.0921 91.5656 9.78207 91.8899 9.51468C92.2199 9.24159 92.621 9.02824 93.0932 8.87463C93.5654 8.71533 94.103 8.63568 94.7061 8.63568C95.5367 8.63568 96.2536 8.76369 96.8567 9.01971C97.4597 9.27004 97.9234 9.62277 98.2477 10.0779C98.5777 10.5274 98.7426 11.0479 98.7426 11.6396H95.8667C95.8667 11.4064 95.8269 11.2072 95.7472 11.0422C95.6733 10.8773 95.551 10.7521 95.3803 10.6668C95.2096 10.5757 94.982 10.5302 94.6976 10.5302C94.4985 10.5302 94.3164 10.5672 94.1514 10.6412C93.9921 10.7151 93.8641 10.8175 93.7674 10.9484C93.6707 11.0792 93.6223 11.2328 93.6223 11.4092C93.6223 11.5344 93.6508 11.6482 93.7076 11.7506C93.7702 11.8473 93.8641 11.9383 93.9893 12.0236C94.1144 12.1033 94.2737 12.1773 94.4672 12.2455C94.6606 12.3081 94.8939 12.365 95.1669 12.4162C95.7871 12.53 96.3674 12.6921 96.9079 12.9026C97.4483 13.1131 97.8864 13.4118 98.2221 13.7987C98.5634 14.1856 98.7341 14.7061 98.7341 15.3604C98.7341 15.77 98.6402 16.1484 98.4525 16.4954C98.2647 16.8368 97.9945 17.1383 97.6418 17.4C97.289 17.656 96.8652 17.8551 96.3702 17.9974C95.8753 18.1396 95.3177 18.2107 94.6976 18.2107C93.8157 18.2107 93.0704 18.0543 92.4617 17.7414C91.8529 17.4228 91.3921 17.0245 91.0792 16.5466C90.772 16.063 90.6184 15.5737 90.6184 15.0788H93.298C93.3094 15.3632 93.3777 15.5965 93.5028 15.7786C93.6337 15.9606 93.8072 16.0943 94.0234 16.1796C94.2396 16.265 94.4899 16.3077 94.7744 16.3077C95.0361 16.3077 95.2523 16.2707 95.423 16.1967C95.5993 16.1228 95.733 16.0232 95.8241 15.898C95.9151 15.7672 95.9606 15.6164 95.9606 15.4457ZM104.947 8.80636V10.8033H99.3827V8.80636H104.947ZM100.552 6.51074H103.428V15.0276C103.428 15.2722 103.456 15.4628 103.513 15.5993C103.57 15.7302 103.667 15.8241 103.803 15.881C103.945 15.9322 104.133 15.9578 104.366 15.9578C104.531 15.9578 104.668 15.9549 104.776 15.9492C104.884 15.9379 104.987 15.9236 105.083 15.9066V17.9632C104.839 18.0429 104.583 18.1026 104.315 18.1424C104.048 18.188 103.763 18.2107 103.462 18.2107C102.847 18.2107 102.321 18.114 101.883 17.9206C101.451 17.7271 101.121 17.4228 100.893 17.0074C100.666 16.5921 100.552 16.0516 100.552 15.386V6.51074ZM110.562 18.2107C109.811 18.2107 109.14 18.0941 108.548 17.8608C107.956 17.6219 107.456 17.2947 107.046 16.8794C106.642 16.4641 106.332 15.9862 106.116 15.4457C105.905 14.9053 105.8 14.3335 105.8 13.7304V13.4061C105.8 12.7291 105.894 12.1033 106.082 11.5287C106.27 10.9484 106.548 10.442 106.918 10.0096C107.288 9.57726 107.752 9.24159 108.309 9.00264C108.867 8.758 109.515 8.63568 110.255 8.63568C110.909 8.63568 111.495 8.74094 112.013 8.95144C112.531 9.16194 112.969 9.46347 113.327 9.85603C113.691 10.2486 113.967 10.7236 114.155 11.2812C114.348 11.8387 114.445 12.4646 114.445 13.1587V14.3278H106.901V12.5271H111.637V12.3053C111.643 11.998 111.589 11.7363 111.475 11.5201C111.367 11.3039 111.208 11.139 110.997 11.0252C110.787 10.9114 110.531 10.8545 110.229 10.8545C109.916 10.8545 109.657 10.9228 109.453 11.0593C109.254 11.1959 109.097 11.3836 108.983 11.6225C108.875 11.8558 108.798 12.126 108.753 12.4333C108.707 12.7405 108.685 13.0648 108.685 13.4061V13.7304C108.685 14.0718 108.73 14.3818 108.821 14.6606C108.918 14.9394 109.054 15.1783 109.231 15.3775C109.413 15.5709 109.629 15.7217 109.879 15.8298C110.135 15.9379 110.426 15.9919 110.75 15.9919C111.142 15.9919 111.529 15.9179 111.91 15.77C112.292 15.6221 112.619 15.3775 112.892 15.0361L114.198 16.5893C114.01 16.8567 113.742 17.1155 113.395 17.3659C113.054 17.6162 112.644 17.821 112.166 17.9803C111.689 18.1339 111.154 18.2107 110.562 18.2107ZM118.516 11.0934V18.04H115.64V8.80636H118.328L118.516 11.0934ZM121.247 8.73809L121.195 11.4092C121.082 11.3978 120.928 11.3836 120.734 11.3665C120.541 11.3495 120.379 11.3409 120.248 11.3409C119.912 11.3409 119.622 11.3808 119.378 11.4604C119.139 11.5344 118.94 11.6482 118.78 11.8018C118.627 11.9497 118.513 12.1374 118.439 12.365C118.371 12.5926 118.339 12.8571 118.345 13.1587L117.824 12.8173C117.824 12.1972 117.884 11.6339 118.004 11.1276C118.129 10.6155 118.305 10.1746 118.533 9.80483C118.76 9.42934 119.036 9.14203 119.361 8.9429C119.685 8.73809 120.049 8.63568 120.453 8.63568C120.595 8.63568 120.734 8.64422 120.871 8.66129C121.013 8.67835 121.138 8.70396 121.247 8.73809Z" fill="#151515"/>
<defs>
<clipPath id="clip0_11_1942">
<rect width="24.08" height="24.08" fill="white"/>
</clipPath>
</defs>
</svg>
