<svg preserveAspectRatio="none" width="100%" height="100%" overflow="visible" style="display: block;" viewBox="0 0 28 28" fill="none" xmlns="http://www.w3.org/2000/svg">
<g id="fluent:database-link-24-filled">
<path id="Vector" d="M14.0013 11.6666C19.1556 11.6666 23.3346 9.57825 23.3346 6.99992C23.3346 4.42159 19.1556 2.33325 14.0013 2.33325C8.84697 2.33325 4.66797 4.42159 4.66797 6.99992C4.66797 9.57825 8.84697 11.6666 14.0013 11.6666ZM21.384 11.8649C22.089 11.5188 22.745 11.0806 23.3346 10.5618V15.2354C23.0451 15.1905 22.7526 15.1675 22.4596 15.1666H18.3763C17.1427 15.1664 15.9443 15.5777 14.9709 16.3356C13.9975 17.0934 13.3048 18.1543 13.0026 19.3503C12.7003 20.5463 12.8057 21.809 13.3021 22.9383C13.7985 24.0676 14.6576 24.999 15.7431 25.5849C15.1777 25.6394 14.5971 25.6666 14.0013 25.6666C8.84697 25.6666 4.66797 23.5783 4.66797 20.9999V10.5618C5.2576 11.0806 5.91356 11.5188 6.61864 11.8649C8.59964 12.8543 11.2106 13.4166 14.0013 13.4166C16.792 13.4166 19.403 12.8543 21.384 11.8649ZM26.8346 20.7083C26.8346 19.5479 26.3737 18.4351 25.5532 17.6147C24.7328 16.7942 23.62 16.3333 22.4596 16.3333L22.3406 16.3414C22.121 16.3716 21.921 16.4841 21.7811 16.6561C21.6412 16.828 21.5718 17.0467 21.5869 17.2679C21.602 17.4891 21.7006 17.6963 21.8625 17.8476C22.0245 17.999 22.2379 18.0832 22.4596 18.0833L22.6393 18.0891C23.3193 18.1345 23.9549 18.4425 24.4119 18.9481C24.8688 19.4536 25.1113 20.1171 25.0879 20.7981C25.0646 21.4792 24.7773 22.1245 24.2868 22.5976C23.7963 23.0707 23.1411 23.3345 22.4596 23.3333L22.4561 23.3391L22.3371 23.3473C22.1169 23.3775 21.9164 23.4905 21.7764 23.6632C21.6364 23.8359 21.5674 24.0555 21.5835 24.2772C21.5995 24.499 21.6994 24.7063 21.8628 24.8571C22.0261 25.0079 22.2408 25.0908 22.4631 25.0891V25.0833L22.6965 25.0774C23.8142 25.0168 24.8663 24.5301 25.6361 23.7173C26.4058 22.9046 26.8348 21.8277 26.8346 20.7083ZM19.2513 17.2083C19.2513 16.9762 19.1591 16.7536 18.995 16.5895C18.8309 16.4254 18.6084 16.3333 18.3763 16.3333L18.143 16.3391C17.0031 16.398 15.9313 16.9 15.1564 17.7381C14.3815 18.5762 13.9648 19.6839 13.9952 20.825C14.0257 21.966 14.5009 23.0499 15.3194 23.8455C16.1379 24.6411 17.2349 25.0852 18.3763 25.0833L18.4953 25.0751C18.7149 25.0449 18.9149 24.9324 19.0548 24.7604C19.1947 24.5885 19.2641 24.3698 19.249 24.1486C19.2339 23.9274 19.1354 23.7202 18.9734 23.5689C18.8114 23.4175 18.598 23.3333 18.3763 23.3333L18.1966 23.3274C17.5167 23.282 16.881 22.974 16.4241 22.4684C15.9671 21.9629 15.7247 21.2994 15.748 20.6184C15.7713 19.9373 16.0586 19.292 16.5491 18.8189C17.0396 18.3458 17.6948 18.082 18.3763 18.0833L18.4953 18.0751C18.7048 18.0463 18.8968 17.9427 19.0357 17.7833C19.1747 17.624 19.2513 17.4197 19.2513 17.2083ZM23.3346 20.7083C23.3346 20.4762 23.2424 20.2536 23.0784 20.0895C22.9143 19.9254 22.6917 19.8333 22.4596 19.8333H18.3763L18.2573 19.8414C18.0377 19.8716 17.8377 19.9841 17.6978 20.1561C17.5579 20.328 17.4885 20.5467 17.5036 20.7679C17.5187 20.9891 17.6172 21.1963 17.7792 21.3476C17.9412 21.499 18.1546 21.5832 18.3763 21.5833H22.4596L22.5786 21.5751C22.7881 21.5463 22.9801 21.4427 23.1191 21.2833C23.2581 21.124 23.3346 20.9197 23.3346 20.7083Z" fill="var(--fill-0, #1A75DA)"/>
</g>
</svg>
