<svg preserveAspectRatio="none" width="100%" height="100%" overflow="visible" style="display: block;" viewBox="0 0 16 16" fill="none" xmlns="http://www.w3.org/2000/svg">
<g id="pixelarticons:lightbulb">
<path id="Vector" d="M5.33464 1.33325H10.668V2.66659H5.33464V1.33325ZM4.0013 3.99992V2.66659H5.33464V3.99992H4.0013ZM4.0013 7.99992H2.66797V3.99992H4.0013V7.99992ZM5.33464 9.33325H4.0013V7.99992H5.33464V9.33325ZM10.668 9.33325V11.9999H5.33464V9.33325H6.66797V10.6666H9.33464V9.33325H10.668ZM12.0013 7.99992V9.33325H10.668V7.99992H12.0013ZM12.0013 3.99992H13.3346V7.99992H12.0013V3.99992ZM12.0013 3.99992V2.66659H10.668V3.99992H12.0013ZM10.668 13.3333H5.33464V14.6666H10.668V13.3333Z" fill="var(--fill-0, #1A75DA)"/>
</g>
</svg>
