<svg preserveAspectRatio="none" width="100%" height="100%" overflow="visible" style="display: block;" viewBox="0 0 51 18" fill="none" xmlns="http://www.w3.org/2000/svg">
<g id="Frame" clip-path="url(#clip0_21_222)">
<path id="Vector" fill-rule="evenodd" clip-rule="evenodd" d="M4.09621 0H7.7591C7.7817 0.000228903 7.80398 0.00545337 7.82442 0.0153148C7.84485 0.0251763 7.86296 0.0394412 7.87749 0.0571306C7.89203 0.07482 7.90265 0.095515 7.90862 0.117795C7.9146 0.140075 7.91578 0.163413 7.9121 0.186207L5.21578 17.0286C5.20988 17.0643 5.19243 17.0969 5.16622 17.1212C5.14002 17.1455 5.10658 17.1601 5.07128 17.1627L1.0435 17.4004H1.035C1.01319 17.4006 0.991598 17.396 0.971692 17.3869C0.951786 17.3778 0.934032 17.3644 0.91964 17.3477C0.903956 17.3296 0.892433 17.3082 0.885918 17.285C0.879403 17.2618 0.878063 17.2374 0.881997 17.2136L3.15696 3.13634C3.1096 1.03717 0.602711 0.530069 0.297925 0.451241C-0.0335747 0.366828 0.00103249 0 0.00103249 0H4.09621ZM23.7197 0.0757241C23.7063 0.0527084 23.6872 0.033637 23.6645 0.0203669C23.6417 0.00709674 23.616 8.00635e-05 23.5897 0L19.6385 0C19.6106 5.64634e-05 19.5833 0.00796395 19.5595 0.0228548C19.5357 0.0377456 19.5164 0.0590443 19.5037 0.0844138L14.0497 10.8813L12.1943 0.129724C12.1884 0.0935437 12.1702 0.0606634 12.1428 0.0369163C12.1155 0.0131691 12.0808 9.02562e-05 12.0449 0L8.06632 0C8.04387 6.82003e-05 8.02172 0.00522521 8.00146 0.0150995C7.98119 0.0249738 7.96333 0.0393196 7.94914 0.0571034C7.93493 0.0751886 7.9247 0.0961938 7.91914 0.118687C7.91359 0.141181 7.91285 0.164634 7.91696 0.187448L10.8628 16.3564C10.8694 16.3937 10.8891 16.4271 10.9182 16.4506C10.9473 16.474 10.9837 16.4858 11.0207 16.4837L15.6131 16.2118C15.6395 16.2102 15.6651 16.2016 15.6872 16.1868C15.7094 16.172 15.7274 16.1515 15.7394 16.1274L23.7245 0.230897C23.7366 0.2067 23.7424 0.179797 23.7416 0.152674C23.7407 0.125551 23.7332 0.0990854 23.7197 0.0757241ZM36.0265 3.48766C35.9755 2.99917 35.8674 2.56531 35.7047 2.19724C35.555 1.85143 35.3482 1.53458 35.0933 1.26062C34.8693 1.02341 34.6177 0.815167 34.3441 0.640552C33.7163 0.268759 32.9701 0.0533793 32.1171 0H24.5691C24.5335 0.0001778 24.4991 0.0133448 24.4722 0.0371288C24.4452 0.0609128 24.4275 0.0937499 24.4221 0.129724L21.9851 15.3881C21.9813 15.4111 21.9826 15.4346 21.9889 15.4569C21.9952 15.4793 22.0064 15.4999 22.0215 15.5172C22.0352 15.5333 22.0521 15.5461 22.0711 15.5549C22.09 15.5636 22.1106 15.5682 22.1314 15.5681H22.1399L25.9345 15.3416C25.9684 15.339 26.0005 15.3249 26.0256 15.3015C26.0507 15.2781 26.0673 15.2467 26.073 15.2125L26.5265 12.3368H30.221C31.0612 12.2841 31.8542 12.0699 32.5785 11.7006C33.2051 11.3822 33.8159 10.8689 34.3951 10.1762C34.9791 9.47669 35.3865 8.48172 35.6045 7.21738L35.9512 5.17221C36.052 4.53972 36.0775 3.97303 36.0265 3.48766ZM31.6502 7.13359C31.6118 7.35435 31.5271 7.56399 31.4019 7.74807C31.2974 7.90407 31.1582 8.04124 30.9841 8.15959C30.8202 8.27131 30.5931 8.32779 30.3108 8.32779H27.144L27.8136 3.98297H31.0285C31.3037 3.98297 31.5018 4.03883 31.6229 4.15055C31.7534 4.27221 31.8481 4.40938 31.904 4.55276C31.9622 4.72159 31.9841 4.92641 31.9707 5.14676L31.6502 7.13359ZM50.8499 0H47.0097C46.973 0.000629404 46.9378 0.0148046 46.9106 0.0399058C46.8834 0.065007 46.8659 0.0993372 46.8615 0.136552L45.4936 9.03476L42.5277 0.108C42.5181 0.0769663 42.4991 0.0498351 42.4735 0.0304512C42.4479 0.0110672 42.4169 0.000413624 42.3851 0L38.5455 0C38.5087 0.000480544 38.4734 0.0145889 38.446 0.0397039C38.4187 0.0648189 38.4012 0.0992328 38.3967 0.136552L36.0532 15.3782C36.0459 15.4272 36.0592 15.4775 36.0896 15.5148C36.1033 15.5317 36.1204 15.5453 36.1399 15.5546C36.1593 15.5639 36.1805 15.5688 36.2019 15.5688L40.1095 15.3267C40.1445 15.3236 40.1774 15.3084 40.2028 15.2835C40.2282 15.2587 40.2446 15.2258 40.2491 15.1901L41.2285 8.75793L43.2976 15.0114C43.3201 15.0797 43.3808 15.1212 43.4476 15.1194L48.6538 14.7966C48.689 14.794 48.7222 14.7789 48.7476 14.754C48.7731 14.7291 48.7893 14.6959 48.7935 14.6601L50.9986 0.189931C51.0024 0.166733 51.0014 0.142971 50.9957 0.120193C50.9899 0.097415 50.9795 0.0761304 50.9652 0.0577241C50.9516 0.0398151 50.9342 0.0253073 50.9144 0.0153044C50.8945 0.00530161 50.872 6.73794e-05 50.8499 0Z" fill="var(--fill-0, #FF3344)"/>
</g>
<defs>
<clipPath id="clip0_21_222">
<rect width="51" height="18" fill="white"/>
</clipPath>
</defs>
</svg>
