<svg preserveAspectRatio="none" width="100%" height="100%" overflow="visible" style="display: block;" viewBox="0 0 25.0762 25.0762" fill="none" xmlns="http://www.w3.org/2000/svg">
<g id="pm_light_contrast 2" clip-path="url(#clip0_21_195)">
<path id="Vector" d="M12.5371 25.0742C19.4612 25.0742 25.0742 19.4612 25.0742 12.5371C25.0742 5.61306 19.4612 0 12.5371 0C5.61306 0 0 5.61306 0 12.5371C0 19.4612 5.61306 25.0742 12.5371 25.0742Z" fill="var(--fill-0, white)"/>
<g id="Main">
<path id="Vector_2" d="M9.7391 7.73106L8.85758 6.21309C8.02029 6.70076 7.28813 7.34977 6.70352 8.1225C6.11892 8.89524 5.69351 9.77632 5.45195 10.7147C5.21039 11.653 5.15749 12.63 5.2963 13.589C5.43512 14.5479 5.7629 15.4698 6.26064 16.3012L7.76803 15.3985C7.39004 14.7666 7.14115 14.066 7.03576 13.3372C6.93038 12.6085 6.97059 11.8661 7.15407 11.153C7.33755 10.4399 7.66065 9.77028 8.10468 9.1829C8.5487 8.59552 9.10483 8.10205 9.74086 7.73106H9.7391Z" fill="var(--fill-0, #151515)"/>
<path id="Vector_3" d="M17.8907 14.0605C17.6653 14.8566 17.2652 15.5923 16.7195 16.2141C16.1737 16.836 15.4961 17.3282 14.7361 17.655C13.976 17.9819 13.1527 18.135 12.3259 18.1034C11.4992 18.0717 10.6899 17.856 9.9571 17.472L9.14258 19.0305C10.1067 19.5336 11.1707 19.8156 12.2574 19.8561C13.3441 19.8967 14.4262 19.6947 15.4251 19.2649C16.424 18.8351 17.3146 18.1882 18.0323 17.3713C18.75 16.5543 19.2768 15.5878 19.5744 14.5419L17.8907 14.0605Z" fill="var(--fill-0, #151515)"/>
<path id="Vector_4" d="M13.4209 15.8886C12.6912 16.0811 11.9186 16.0302 11.2204 15.7436C10.5223 15.457 9.93676 14.9504 9.55277 14.3007C9.16879 13.651 9.00734 12.8938 9.09293 12.144C9.17853 11.3942 9.50651 10.6928 10.027 10.1464L9.23368 9.39355C8.54991 10.1129 8.11944 11.0356 8.00758 12.0218C7.89572 13.0079 8.10858 14.0037 8.61385 14.8579C9.11913 15.7121 9.88924 16.3782 10.8074 16.7551C11.7255 17.132 12.7415 17.1992 13.7012 16.9464L13.4209 15.8886Z" fill="var(--fill-0, #151515)"/>
<path id="Vector_5" d="M12.5393 21.1142C10.8432 21.1142 9.18526 20.6112 7.77504 19.669C6.36483 18.7267 5.2657 17.3874 4.61665 15.8204C3.96759 14.2535 3.79777 12.5293 4.12866 10.8658C4.45954 9.20234 5.27627 7.67436 6.47555 6.47507C7.67484 5.27578 9.20283 4.45905 10.8663 4.12817C12.5298 3.79728 14.254 3.9671 15.8209 4.61616C17.3879 5.26521 18.7272 6.36434 19.6694 7.77455C20.6117 9.18477 21.1147 10.8427 21.1147 12.5388C21.1147 14.8131 20.2112 16.9943 18.603 18.6025C16.9948 20.2107 14.8136 21.1142 12.5393 21.1142ZM23.8227 12.5388C23.8227 10.3071 23.1609 8.1256 21.9211 6.27006C20.6812 4.41451 18.919 2.96829 16.8572 2.11427C14.7955 1.26026 12.5268 1.03681 10.338 1.47218C8.14922 1.90756 6.13871 2.9822 4.5607 4.56021C2.98269 6.13822 1.90804 8.14873 1.47267 10.3375C1.0373 12.5263 1.26075 14.795 2.11476 16.8568C2.96878 18.9185 4.415 20.6808 6.27055 21.9206C8.12609 23.1604 10.3076 23.8222 12.5393 23.8222C15.5318 23.8222 18.4018 22.6334 20.5178 20.5174C22.6339 18.4013 23.8227 15.5313 23.8227 12.5388Z" fill="var(--fill-0, #151515)"/>
</g>
</g>
<defs>
<clipPath id="clip0_21_195">
<rect width="25.0762" height="25.0762" fill="white"/>
</clipPath>
</defs>
</svg>
