<svg preserveAspectRatio="none" width="100%" height="100%" overflow="visible" style="display: block;" viewBox="0 0 72 5.7735" fill="none" xmlns="http://www.w3.org/2000/svg">
<path id="Line 45" d="M0 2.88675L5 5.7735V0L0 2.88675ZM6 2.88675V3.38675L10 3.38675V2.88675L10 2.38675L6 2.38675V2.88675ZM14 2.88675V3.38675H18V2.88675V2.38675L14 2.38675V2.88675ZM22 2.88675V3.38675H26V2.88675V2.38675H22V2.88675ZM30 2.88675V3.38675L34 3.38675V2.88675V2.38675L30 2.38675V2.88675ZM38 2.88675V3.38675H42V2.88675V2.38675L38 2.38675V2.88675ZM46 2.88675V3.38675H50L50 2.88675V2.38675L46 2.38675V2.88675ZM54 2.88675V3.38675L58 3.38675V2.88675L58 2.38675H54V2.88675ZM62 2.88675V3.38675H66V2.88675V2.38675L62 2.38675V2.88675ZM70 2.88675V3.38675H72V2.88675V2.38675L70 2.38675V2.88675Z" fill="url(#paint0_linear_21_61)"/>
<defs>
<linearGradient id="paint0_linear_21_61" x1="14054.6" y1="2.71412" x2="-29139" y2="2.71497" gradientUnits="userSpaceOnUse">
<stop stop-color="#449CF8" stop-opacity="0"/>
<stop offset="0.3125" stop-color="#449CF8"/>
</linearGradient>
</defs>
</svg>
