<svg preserveAspectRatio="none" width="100%" height="100%" overflow="visible" style="display: block;" viewBox="0 0 24.08 24.08" fill="none" xmlns="http://www.w3.org/2000/svg">
<g id="pm_light_contrast 2" clip-path="url(#clip0_21_145)">
<path id="Vector" d="M12.0391 24.0781C18.6881 24.0781 24.0781 18.6881 24.0781 12.0391C24.0781 5.39007 18.6881 0 12.0391 0C5.39007 0 0 5.39007 0 12.0391C0 18.6881 5.39007 24.0781 12.0391 24.0781Z" fill="var(--fill-0, #151515)"/>
<g id="Main">
<path id="Vector_2" d="M9.35445 7.42398L8.50795 5.96631C7.70393 6.43461 7.00085 7.05784 6.43947 7.79987C5.87809 8.54191 5.46958 9.38799 5.23762 10.2891C5.00566 11.1902 4.95485 12.1283 5.08815 13.0492C5.22145 13.97 5.53621 14.8553 6.01418 15.6536L7.46168 14.7868C7.09871 14.18 6.85971 13.5072 6.75851 12.8074C6.65731 12.1077 6.69592 11.3947 6.87211 10.71C7.04831 10.0252 7.35857 9.38218 7.78496 8.81814C8.21135 8.2541 8.74538 7.78023 9.35614 7.42398H9.35445Z" fill="var(--fill-0, white)"/>
<path id="Vector_3" d="M17.1819 13.5017C16.9654 14.2661 16.5812 14.9726 16.0571 15.5698C15.5331 16.1669 14.8824 16.6396 14.1526 16.9534C13.4227 17.2673 12.632 17.4143 11.8381 17.3839C11.0442 17.3535 10.2671 17.1464 9.56341 16.7777L8.78125 18.2743C9.70705 18.7573 10.7288 19.0281 11.7723 19.0671C12.8158 19.106 13.8549 18.912 14.8141 18.4993C15.7734 18.0866 16.6286 17.4654 17.3178 16.6809C18.007 15.8964 18.5129 14.9683 18.7987 13.9639L17.1819 13.5017Z" fill="var(--fill-0, white)"/>
<path id="Vector_4" d="M12.8902 15.2575C12.1895 15.4424 11.4476 15.3935 10.7772 15.1183C10.1068 14.8431 9.54451 14.3566 9.17578 13.7327C8.80705 13.1088 8.65201 12.3817 8.73421 11.6617C8.81641 10.9416 9.13135 10.2681 9.63121 9.74342L8.86936 9.02051C8.21276 9.71128 7.79939 10.5974 7.69198 11.5443C7.58456 12.4913 7.78896 13.4475 8.27416 14.2677C8.75936 15.088 9.49888 15.7277 10.3805 16.0896C11.2622 16.4515 12.2378 16.516 13.1594 16.2733L12.8902 15.2575Z" fill="var(--fill-0, white)"/>
<path id="Vector_5" d="M12.0422 20.2754C10.4135 20.2754 8.82142 19.7925 7.46723 18.8876C6.11304 17.9828 5.05757 16.6967 4.4343 15.192C3.81104 13.6873 3.64796 12.0316 3.9657 10.4342C4.28344 8.83683 5.06772 7.36955 6.21937 6.2179C7.37101 5.06626 8.8383 4.28197 10.4357 3.96424C12.0331 3.6465 13.6888 3.80957 15.1935 4.43284C16.6982 5.05611 17.9843 6.11157 18.8891 7.46576C19.794 8.81995 20.2769 10.4121 20.2769 12.0407C20.2769 14.2247 19.4093 16.3192 17.865 17.8636C16.3207 19.4079 14.2262 20.2754 12.0422 20.2754ZM22.8773 12.0407C22.8773 9.89774 22.2419 7.80287 21.0513 6.02104C19.8607 4.2392 18.1685 2.85044 16.1886 2.03035C14.2088 1.21026 12.0302 0.995689 9.92836 1.41377C7.82654 1.83184 5.8959 2.86379 4.38058 4.37911C2.86526 5.89444 1.83331 7.82508 1.41523 9.92689C0.997154 12.0287 1.21173 14.2073 2.03181 16.1872C2.8519 18.167 4.24067 19.8592 6.0225 21.0498C7.80434 22.2404 9.8992 22.8759 12.0422 22.8759C14.9159 22.8759 17.6718 21.7343 19.7038 19.7023C21.7358 17.6704 22.8773 14.9144 22.8773 12.0407Z" fill="var(--fill-0, white)"/>
</g>
</g>
<defs>
<clipPath id="clip0_21_145">
<rect width="24.08" height="24.08" fill="white"/>
</clipPath>
</defs>
</svg>
