<svg preserveAspectRatio="none" width="100%" height="100%" overflow="visible" style="display: block;" viewBox="0 0 96.2598 58.5115" fill="none" xmlns="http://www.w3.org/2000/svg">
<g id="Frame 2087331325">
<path id="Line 45" d="M48.1299 32L51.0167 27L45.2431 27L48.1299 32ZM48.1299 26L48.6299 26L48.6299 22L48.1299 22L47.6299 22L47.6299 26L48.1299 26ZM48.1299 18L48.6299 18L48.6299 14L48.1299 14L47.6299 14L47.6299 18L48.1299 18ZM48.1299 10L48.6299 10L48.6299 6L48.1299 6L47.6299 6L47.6299 10L48.1299 10ZM48.1299 2L48.6299 2L48.6299 0L48.1299 2.18557e-08L47.6299 4.37114e-08L47.6299 2L48.1299 2Z" fill="url(#paint0_linear_21_35)"/>
<g id="&#208;&#183;&#208;&#176;&#208;&#178;&#208;&#176;&#208;&#189;&#209;&#130;&#208;&#176;&#208;&#182;&#208;&#181;&#208;&#189;&#208;&#189;&#209;&#143; 1" clip-path="url(#clip0_21_35)">
<path id="Vector" d="M88.4504 58.5084C84.8095 58.5084 82.4815 56.7294 81.5156 54.1118L84.9334 52.0787C85.5525 53.5527 86.6176 54.5439 88.5743 54.5439C90.4565 54.5439 90.9272 53.7815 90.9272 53.0953C90.9272 52.0025 89.9364 51.5705 87.3358 50.8335C84.76 50.0965 82.2337 48.8258 82.2337 45.4204C82.2337 41.9896 85.0573 40.0073 88.0541 40.0073C90.9023 40.0073 93.1313 41.4051 94.3944 44.0227L91.051 46.0303C90.4565 44.7597 89.6391 43.9718 88.0541 43.9718C86.8156 43.9718 86.1965 44.6072 86.1965 45.3188C86.1965 46.132 86.6176 46.6911 89.3173 47.5297C91.9425 48.343 94.8899 49.2833 94.8899 53.0445C94.8899 56.4753 92.2149 58.5084 88.4504 58.5084Z" fill="var(--fill-0, #009F95)"/>
<path id="Vector_2" d="M75.7079 40.3616H79.6707V58.1511H76.6987L70.0114 48.4939V58.1511H66.0486V40.3616H69.0209L75.7079 50.0187V40.3616Z" fill="var(--fill-0, #009F95)"/>
<path id="Vector_3" d="M55.773 40.3616C60.5532 40.3616 64.1938 44.2245 64.1938 49.2563C64.1938 54.2882 60.5532 58.1511 55.773 58.1511H50.5796V40.3616H55.773ZM55.773 54.2374C58.4973 54.2374 60.3798 52.3059 60.3798 49.2563C60.3798 46.2067 58.4973 44.2753 55.773 44.2753H54.5424V54.2374H55.773Z" fill="var(--fill-0, #009F95)"/>
<path id="Vector_4" d="M45.0116 40.3616H48.7266V58.1511H45.0116V56.9566C44.1942 57.9223 42.9805 58.5069 41.3212 58.5069C38.0768 58.5069 35.4018 55.5843 35.4018 51.7977C35.4018 48.0111 38.0768 45.0885 41.3212 45.0885C42.9805 45.0885 44.1942 45.673 45.0116 46.6388V40.3616ZM42.0642 54.8981C43.7733 54.8981 45.0116 53.7037 45.0116 51.7977C45.0116 49.8917 43.7733 48.6973 42.0642 48.6973C40.3553 48.6973 39.117 49.8917 39.117 51.7977C39.117 53.7037 40.3553 54.8981 42.0642 54.8981Z" fill="var(--fill-0, white)"/>
<path id="Vector_5" d="M23.2752 43.6932V40.6436H30.7054V43.6932H23.2752ZM26.9903 58.5093C23.3495 58.5093 20.4269 55.5867 20.4269 51.8001C20.4269 48.0135 23.3495 45.091 26.9903 45.091C30.631 45.091 33.5538 48.0135 33.5538 51.8001C33.5538 55.5867 30.631 58.5093 26.9903 58.5093ZM26.9903 54.7989C28.6003 54.7989 29.8385 53.6045 29.8385 51.8001C29.8385 49.9958 28.6003 48.8013 26.9903 48.8013C25.3804 48.8013 24.1421 49.9958 24.1421 51.8001C24.1421 53.6045 25.3804 54.7989 26.9903 54.7989Z" fill="var(--fill-0, white)"/>
<path id="Vector_6" d="M13.8689 45.0907C16.7171 45.0907 18.5747 47.1746 18.5747 50.3513V58.1532H14.8595V50.6817C14.8595 49.411 14.2651 48.5978 13.0763 48.5978C11.8379 48.5978 11.1444 49.4872 11.1444 50.9866V58.1532H7.42932V50.6817C7.42932 49.411 6.83492 48.5978 5.64609 48.5978C4.40771 48.5978 3.71423 49.4872 3.71423 50.9866V58.1532H-0.000884247V45.4465H3.71423V46.6155C4.28388 45.7514 5.37364 45.0907 7.03305 45.0907C8.49433 45.0907 9.58408 45.7006 10.2776 46.768C10.9711 45.7514 12.1104 45.0907 13.8689 45.0907Z" fill="var(--fill-0, white)"/>
</g>
</g>
<defs>
<linearGradient id="paint0_linear_21_35" x1="48.1296" y1="-6214.48" x2="168.556" y2="12981.9" gradientUnits="userSpaceOnUse">
<stop stop-color="#449CF8" stop-opacity="0"/>
<stop offset="0.3125" stop-color="#449CF8"/>
</linearGradient>
<clipPath id="clip0_21_35">
<rect width="96.2598" height="18.5115" fill="white" transform="translate(0 40)"/>
</clipPath>
</defs>
</svg>
