<svg preserveAspectRatio="none" width="100%" height="100%" overflow="visible" style="display: block;" viewBox="0 0 61 21" fill="none" xmlns="http://www.w3.org/2000/svg">
<g id="Frame" clip-path="url(#clip0_21_165)">
<path id="Vector" fill-rule="evenodd" clip-rule="evenodd" d="M4.89939 0H9.2805C9.30752 0.000267054 9.33417 0.00636227 9.35862 0.0178673C9.38306 0.0293723 9.40472 0.0460148 9.4221 0.0666524C9.43949 0.08729 9.45219 0.111434 9.45933 0.137428C9.46648 0.163421 9.4679 0.190649 9.4635 0.217241L6.23849 19.8667C6.23143 19.9083 6.21055 19.9464 6.17921 19.9747C6.14787 20.0031 6.10787 20.0202 6.06565 20.0231L1.2481 20.3005H1.23794C1.21185 20.3007 1.18603 20.2953 1.16222 20.2847C1.13841 20.2741 1.11718 20.2585 1.09996 20.2389C1.0812 20.2179 1.06742 20.1929 1.05963 20.1658C1.05184 20.1388 1.05023 20.1103 1.05494 20.0825L3.77597 3.65907C3.71933 1.21003 0.72089 0.618414 0.356342 0.526448C-0.0401579 0.427965 0.00123494 0 0.00123494 0H4.89939ZM28.3706 0.0883448C28.3545 0.0614931 28.3318 0.0392432 28.3046 0.0237614C28.2773 0.00827953 28.2465 9.34074e-05 28.2152 0L23.4891 0C23.4558 6.5874e-05 23.4231 0.00929128 23.3947 0.0266639C23.3662 0.0440366 23.3431 0.068885 23.3279 0.0984828L16.8046 12.6949L14.5853 0.151345C14.5783 0.109134 14.5565 0.070774 14.5238 0.043069C14.4911 0.0153639 14.4496 0.000105299 14.4067 0L9.64795 0C9.6211 7.9567e-05 9.59461 0.00609608 9.57037 0.0176161C9.54613 0.0291361 9.52476 0.0458729 9.50779 0.0666207C9.49079 0.08772 9.47856 0.112226 9.47191 0.138469C9.46527 0.164711 9.46438 0.192073 9.46931 0.21869L12.9928 19.0825C13.0007 19.1259 13.0242 19.165 13.059 19.1923C13.0938 19.2197 13.1374 19.2334 13.1816 19.2309L18.6745 18.9138C18.7061 18.9119 18.7367 18.9018 18.7632 18.8846C18.7897 18.8673 18.8112 18.8434 18.8255 18.8153L28.3764 0.269379C28.3908 0.24115 28.3978 0.209763 28.3968 0.17812C28.3957 0.146477 28.3867 0.1156 28.3706 0.0883448ZM43.0905 4.06893C43.0295 3.49903 42.9002 2.99286 42.7056 2.56345C42.5266 2.16 42.2792 1.79035 41.9743 1.47072C41.7064 1.19398 41.4054 0.951028 41.0782 0.74731C40.3273 0.313552 39.4348 0.0622759 38.4145 0H29.3865C29.344 0.000207433 29.3029 0.015569 29.2706 0.0433169C29.2384 0.0710649 29.2172 0.109375 29.2108 0.151345L26.2959 17.9528C26.2913 17.9796 26.2929 18.007 26.3005 18.0331C26.308 18.0592 26.3213 18.0832 26.3394 18.1034C26.3558 18.1221 26.376 18.1371 26.3987 18.1473C26.4214 18.1576 26.446 18.1629 26.4709 18.1628H26.481L31.0197 17.8985C31.0603 17.8955 31.0986 17.879 31.1286 17.8517C31.1586 17.8244 31.1786 17.7879 31.1853 17.7479L31.7278 14.393H36.1466C37.1517 14.3314 38.1001 14.0816 38.9664 13.6507C39.7159 13.2792 40.4464 12.6804 41.1392 11.8722C41.8378 11.0561 42.3251 9.89534 42.5858 8.42028L43.0004 6.03424C43.121 5.29634 43.1515 4.63521 43.0905 4.06893ZM37.8561 8.32252C37.8102 8.58007 37.7089 8.82465 37.5591 9.03941C37.4342 9.22141 37.2676 9.38145 37.0595 9.51952C36.8634 9.64986 36.5918 9.71576 36.2541 9.71576H32.4663L33.2673 4.64679H37.1125C37.4417 4.64679 37.6787 4.71197 37.8234 4.84231C37.9795 4.98424 38.0928 5.14428 38.1596 5.31155C38.2294 5.50852 38.2555 5.74748 38.2395 6.00455L37.8561 8.32252ZM60.8204 0H56.2273C56.1834 0.000734304 56.1413 0.017272 56.1087 0.0465567C56.0762 0.0758415 56.0553 0.115893 56.0501 0.15931L54.414 10.5406L50.8665 0.126C50.8549 0.089794 50.8322 0.058141 50.8016 0.0355264C50.771 0.0129118 50.734 0.000482561 50.6959 0L46.1034 0C46.0595 0.000560635 46.0172 0.0170204 45.9845 0.0463212C45.9517 0.075622 45.9308 0.115772 45.9255 0.15931L43.1224 17.9412C43.1137 17.9984 43.1297 18.0571 43.166 18.1006C43.1824 18.1203 43.2029 18.1361 43.2261 18.147C43.2493 18.1579 43.2747 18.1636 43.3003 18.1636L47.9741 17.8811C48.016 17.8775 48.0554 17.8598 48.0857 17.8308C48.1161 17.8018 48.1357 17.7634 48.1411 17.7218L49.3125 10.2176L51.7873 17.5133C51.8142 17.5929 51.8868 17.6414 51.9667 17.6393L58.1938 17.2627C58.2358 17.2596 58.2755 17.2421 58.306 17.213C58.3365 17.1839 58.3559 17.1452 58.3608 17.1034L60.9983 0.221586C61.0029 0.194521 61.0017 0.1668 60.9948 0.140225C60.9879 0.113651 60.9755 0.0888188 60.9584 0.0673448C60.9422 0.046451 60.9214 0.0295251 60.8976 0.0178552C60.8738 0.00618521 60.8469 7.86093e-05 60.8204 0Z" fill="var(--fill-0, #FF3344)"/>
</g>
<defs>
<clipPath id="clip0_21_165">
<rect width="61" height="21" fill="white"/>
</clipPath>
</defs>
</svg>
