<svg preserveAspectRatio="none" width="100%" height="100%" overflow="visible" style="display: block;" viewBox="0 0 25.284 25.284" fill="none" xmlns="http://www.w3.org/2000/svg">
<g id="pm_light_contrast 2" clip-path="url(#clip0_21_53)">
<path id="Vector" d="M12.6404 25.2821C19.6219 25.2821 25.2815 19.6225 25.2815 12.6411C25.2815 5.65962 19.6219 5.07832e-05 12.6404 5.07832e-05C5.659 5.07832e-05 -0.000578117 5.65962 -0.000578117 12.6411C-0.000578117 19.6225 5.659 25.2821 12.6404 25.2821Z" fill="var(--fill-0, black)"/>
<g id="Main">
<path id="Vector_2" d="M9.81877 7.79501L8.92995 6.26446C8.08572 6.75617 7.34749 7.41056 6.75804 8.1897C6.16859 8.96883 5.73966 9.85722 5.4961 10.8034C5.25254 11.7495 5.19919 12.7346 5.33916 13.7015C5.47912 14.6684 5.80962 15.5979 6.31148 16.4361L7.83136 15.526C7.45025 14.8888 7.19929 14.1824 7.09303 13.4476C6.98677 12.7129 7.02732 11.9643 7.21232 11.2453C7.39732 10.5263 7.7231 9.85112 8.17081 9.25888C8.61851 8.66663 9.17924 8.16907 9.82055 7.79501H9.81877Z" fill="var(--fill-0, white)"/>
<path id="Vector_3" d="M18.0376 14.1769C17.8103 14.9795 17.4068 15.7214 16.8566 16.3483C16.3063 16.9753 15.6231 17.4716 14.8568 17.8012C14.0904 18.1307 13.2602 18.2851 12.4266 18.2532C11.593 18.2213 10.7771 18.0038 10.0382 17.6166L9.21691 19.1881C10.189 19.6953 11.2618 19.9796 12.3575 20.0205C13.4532 20.0614 14.5443 19.8577 15.5515 19.4244C16.5586 18.991 17.4567 18.3388 18.1803 17.515C18.904 16.6913 19.4352 15.7168 19.7352 14.6622L18.0376 14.1769Z" fill="var(--fill-0, white)"/>
<path id="Vector_4" d="M13.5313 16.0202C12.7956 16.2143 12.0166 16.163 11.3126 15.874C10.6087 15.5851 10.0183 15.0743 9.63117 14.4192C9.244 13.7641 9.08121 13.0006 9.16752 12.2446C9.25382 11.4886 9.58452 10.7814 10.1094 10.2304L9.30942 9.47137C8.61999 10.1967 8.18596 11.1271 8.07317 12.1214C7.96039 13.1157 8.175 14.1197 8.68446 14.981C9.19393 15.8423 9.97042 16.5139 10.8961 16.8939C11.8219 17.274 12.8463 17.3417 13.814 17.0868L13.5313 16.0202Z" fill="var(--fill-0, white)"/>
<path id="Vector_5" d="M12.643 21.289C10.9328 21.289 9.26114 20.7819 7.83924 19.8319C6.41734 18.8818 5.3091 17.5314 4.65467 15.9514C4.00024 14.3715 3.82901 12.633 4.16264 10.9558C4.49626 9.27851 5.31976 7.73786 6.52898 6.52863C7.73821 5.3194 9.27886 4.49591 10.9561 4.16228C12.6334 3.82866 14.3719 3.99988 15.9518 4.65431C17.5317 5.30874 18.8821 6.41698 19.8322 7.83888C20.7823 9.26078 21.2894 10.9325 21.2894 12.6426C21.2894 14.9358 20.3784 17.135 18.7569 18.7566C17.1354 20.3781 14.9361 21.289 12.643 21.289ZM24.0199 12.6426C24.0199 10.3925 23.3526 8.19284 22.1025 6.32192C20.8524 4.451 19.0756 2.99279 16.9967 2.1317C14.9178 1.27061 12.6303 1.04531 10.4234 1.48429C8.21652 1.92327 6.18935 3.00681 4.59826 4.5979C3.00717 6.18899 1.92362 8.21617 1.48464 10.4231C1.04566 12.63 1.27096 14.9175 2.13205 16.9964C2.99314 19.0752 4.45135 20.852 6.32228 22.1022C8.1932 23.3523 10.3928 24.0195 12.643 24.0195C15.6603 24.0195 18.5541 22.8209 20.6876 20.6873C22.8212 18.5537 24.0199 15.6599 24.0199 12.6426Z" fill="var(--fill-0, white)"/>
</g>
</g>
<defs>
<clipPath id="clip0_21_53">
<rect width="25.284" height="25.284" fill="white"/>
</clipPath>
</defs>
</svg>
