<svg width="129" height="26" viewBox="0 0 129 26" fill="none" xmlns="http://www.w3.org/2000/svg">
<g clip-path="url(#clip0_11_1092)">
<path d="M12.6404 25.282C19.6218 25.282 25.2814 19.6225 25.2814 12.641C25.2814 5.65957 19.6218 0 12.6404 0C5.65896 0 -0.000610352 5.65957 -0.000610352 12.641C-0.000610352 19.6225 5.65896 25.282 12.6404 25.282Z" fill="black"/>
<path d="M9.81883 7.7952L8.93001 6.26465C8.08578 6.75636 7.34755 7.41075 6.7581 8.18989C6.16865 8.96903 5.73972 9.85741 5.49616 10.8035C5.25259 11.7497 5.19925 12.7348 5.33922 13.7017C5.47918 14.6686 5.80968 15.5981 6.31154 16.4363L7.83142 15.5262C7.4503 14.889 7.19935 14.1826 7.09309 13.4478C6.98683 12.7131 7.02737 11.9645 7.21237 11.2455C7.39738 10.5265 7.72316 9.85132 8.17086 9.25907C8.61857 8.66682 9.1793 8.16927 9.8206 7.7952H9.81883Z" fill="white"/>
<path d="M18.0376 14.1768C17.8103 14.9794 17.4068 15.7212 16.8566 16.3482C16.3063 16.9752 15.6231 17.4715 14.8568 17.801C14.0904 18.1306 13.2602 18.285 12.4266 18.2531C11.5931 18.2212 10.7771 18.0037 10.0382 17.6165L9.21692 19.1879C10.189 19.6951 11.2618 19.9795 12.3575 20.0204C13.4532 20.0612 14.5443 19.8576 15.5515 19.4242C16.5586 18.9909 17.4567 18.3386 18.1803 17.5149C18.904 16.6912 19.4352 15.7167 19.7352 14.6621L18.0376 14.1768Z" fill="white"/>
<path d="M13.5314 16.0205C12.7957 16.2146 12.0167 16.1633 11.3127 15.8743C10.6088 15.5854 10.0184 15.0746 9.63125 14.4195C9.24408 13.7644 9.08129 13.0009 9.1676 12.2449C9.25391 11.4889 9.5846 10.7817 10.1094 10.2307L9.30951 9.47168C8.62008 10.197 8.18604 11.1274 8.07325 12.1217C7.96047 13.116 8.17509 14.12 8.68455 14.9813C9.19401 15.8426 9.97051 16.5142 10.8962 16.8942C11.8219 17.2743 12.8464 17.342 13.8141 17.0871L13.5314 16.0205Z" fill="white"/>
<path d="M12.643 21.289C10.9329 21.289 9.26122 20.7819 7.83932 19.8318C6.41742 18.8817 5.30918 17.5313 4.65475 15.9514C4.00032 14.3715 3.82909 12.633 4.16272 10.9557C4.49634 9.27846 5.31984 7.7378 6.52907 6.52858C7.73829 5.31935 9.27894 4.49585 10.9562 4.16223C12.6334 3.8286 14.372 3.99983 15.9519 4.65426C17.5318 5.30869 18.8822 6.41693 19.8323 7.83883C20.7824 9.26073 21.2895 10.9324 21.2895 12.6425C21.2895 14.9357 20.3785 17.135 18.757 18.7565C17.1355 20.378 14.9362 21.289 12.643 21.289ZM24.0199 12.6425C24.0199 10.3924 23.3527 8.19279 22.1026 6.32187C20.8525 4.45094 19.0756 2.99274 16.9968 2.13165C14.9179 1.27055 12.6304 1.04525 10.4235 1.48423C8.2166 1.92321 6.18943 3.00676 4.59834 4.59785C3.00725 6.18894 1.9237 8.21611 1.48472 10.423C1.04574 12.6299 1.27104 14.9174 2.13213 16.9963C2.99323 19.0752 4.45144 20.852 6.32236 22.1021C8.19328 23.3522 10.3929 24.0195 12.643 24.0195C15.6604 24.0195 18.5541 22.8208 20.6877 20.6872C22.8213 18.5536 24.0199 15.6599 24.0199 12.6425Z" fill="white"/>
</g>
<path d="M39.6117 14.7151H36.368V12.2867H39.6117C40.0538 12.2867 40.4122 12.2121 40.687 12.0627C40.9618 11.9134 41.1619 11.7073 41.2874 11.4445C41.4188 11.1756 41.4845 10.874 41.4845 10.5394C41.4845 10.181 41.4188 9.84947 41.2874 9.54481C41.1619 9.24015 40.9618 8.99522 40.687 8.81004C40.4122 8.61888 40.0538 8.5233 39.6117 8.5233H37.5508V19.1416H34.4056V6.09498H39.6117C40.6571 6.09498 41.5562 6.28614 42.3089 6.66846C43.0675 7.05078 43.65 7.57646 44.0562 8.24552C44.4624 8.90861 44.6655 9.66727 44.6655 10.5215C44.6655 11.3638 44.4624 12.0986 44.0562 12.7258C43.65 13.3531 43.0675 13.8429 42.3089 14.1954C41.5562 14.5418 40.6571 14.7151 39.6117 14.7151ZM45.7139 14.3925V14.2043C45.7139 13.4934 45.8155 12.8393 46.0186 12.2419C46.2217 11.6386 46.5204 11.1159 46.9146 10.6738C47.3089 10.2318 47.7957 9.8883 48.3752 9.64337C48.9547 9.39248 49.6237 9.26703 50.3824 9.26703C51.147 9.26703 51.8191 9.39248 52.3985 9.64337C52.9839 9.8883 53.4738 10.2318 53.868 10.6738C54.2623 11.1159 54.561 11.6386 54.7641 12.2419C54.9672 12.8393 55.0688 13.4934 55.0688 14.2043V14.3925C55.0688 15.0974 54.9672 15.7515 54.7641 16.3549C54.561 16.9522 54.2623 17.4749 53.868 17.923C53.4738 18.365 52.9869 18.7085 52.4075 18.9534C51.828 19.1984 51.159 19.3208 50.4003 19.3208C49.6416 19.3208 48.9696 19.1984 48.3842 18.9534C47.7987 18.7085 47.3089 18.365 46.9146 17.923C46.5204 17.4749 46.2217 16.9522 46.0186 16.3549C45.8155 15.7515 45.7139 15.0974 45.7139 14.3925ZM48.7336 14.2043V14.3925C48.7336 14.7569 48.7605 15.0974 48.8143 15.414C48.868 15.7306 48.9576 16.0084 49.0831 16.2473C49.2085 16.4803 49.3788 16.6625 49.5938 16.7939C49.8089 16.9253 50.0777 16.9911 50.4003 16.9911C50.7169 16.9911 50.9797 16.9253 51.1888 16.7939C51.4039 16.6625 51.5741 16.4803 51.6996 16.2473C51.825 16.0084 51.9146 15.7306 51.9684 15.414C52.0222 15.0974 52.049 14.7569 52.049 14.3925V14.2043C52.049 13.8519 52.0222 13.5203 51.9684 13.2097C51.9146 12.8931 51.825 12.6153 51.6996 12.3764C51.5741 12.1314 51.4039 11.9403 51.1888 11.8029C50.9738 11.6655 50.705 11.5968 50.3824 11.5968C50.0658 11.5968 49.7999 11.6655 49.5849 11.8029C49.3758 11.9403 49.2085 12.1314 49.0831 12.3764C48.9576 12.6153 48.868 12.8931 48.8143 13.2097C48.7605 13.5203 48.7336 13.8519 48.7336 14.2043ZM59.4594 11.8477V19.1416H56.4397V9.44624H59.2623L59.4594 11.8477ZM62.3268 9.37456L62.2731 12.1792C62.1536 12.1673 61.9923 12.1523 61.7892 12.1344C61.5861 12.1165 61.4158 12.1075 61.2784 12.1075C60.926 12.1075 60.6213 12.1494 60.3645 12.233C60.1136 12.3106 59.9045 12.4301 59.7372 12.5914C59.5759 12.7467 59.4565 12.9439 59.3788 13.1828C59.3071 13.4218 59.2743 13.6995 59.2802 14.0161L58.7336 13.6577C58.7336 13.0066 58.7964 12.4152 58.9218 11.8835C59.0532 11.3459 59.2384 10.8829 59.4774 10.4946C59.7163 10.1004 60.006 9.79869 60.3465 9.58961C60.6871 9.37456 61.0694 9.26703 61.4935 9.26703C61.6428 9.26703 61.7892 9.27599 61.9326 9.29391C62.0819 9.31183 62.2133 9.33871 62.3268 9.37456ZM68.9218 9.44624V11.543H63.0795V9.44624H68.9218ZM64.3071 7.03584H67.3268V15.9785C67.3268 16.2354 67.3567 16.4355 67.4165 16.5789C67.4762 16.7163 67.5777 16.8148 67.7211 16.8746C67.8705 16.9283 68.0676 16.9552 68.3125 16.9552C68.4858 16.9552 68.6291 16.9522 68.7426 16.9463C68.8561 16.9343 68.9637 16.9194 69.0652 16.9015V19.061C68.8083 19.1446 68.5395 19.2073 68.2588 19.2491C67.978 19.2969 67.6793 19.3208 67.3627 19.3208C66.7175 19.3208 66.165 19.2193 65.705 19.0162C65.251 18.813 64.9045 18.4935 64.6656 18.0574C64.4266 17.6213 64.3071 17.0538 64.3071 16.3549V7.03584ZM73.1692 11.4982V19.1416H70.1494V9.44624H72.981L73.1692 11.4982ZM72.8018 13.9624L72.1118 13.9803C72.1118 13.2993 72.1925 12.6721 72.3537 12.0986C72.515 11.5251 72.754 11.0263 73.0706 10.6022C73.3872 10.178 73.7755 9.84947 74.2355 9.61649C74.7014 9.38352 75.2391 9.26703 75.8484 9.26703C76.2725 9.26703 76.6578 9.33274 77.0043 9.46416C77.3508 9.58961 77.6495 9.78973 77.9003 10.0645C78.1512 10.3333 78.3424 10.6858 78.4738 11.1219C78.6112 11.552 78.6799 12.0687 78.6799 12.6721V19.1416H75.6602V13.0574C75.6602 12.6452 75.6124 12.3345 75.5168 12.1255C75.4272 11.9164 75.2958 11.776 75.1226 11.7043C74.9493 11.6326 74.7373 11.5968 74.4864 11.5968C74.2235 11.5968 73.9876 11.6565 73.7785 11.776C73.5694 11.8955 73.3902 12.0627 73.2408 12.2778C73.0975 12.4869 72.987 12.7348 72.9093 13.0215C72.8376 13.3083 72.8018 13.6219 72.8018 13.9624ZM78.3394 13.9624L77.4971 13.9803C77.4971 13.2993 77.5718 12.6721 77.7211 12.0986C77.8765 11.5251 78.1064 11.0263 78.4111 10.6022C78.7217 10.178 79.107 9.84947 79.567 9.61649C80.027 9.38352 80.5616 9.26703 81.171 9.26703C81.613 9.26703 82.0192 9.33274 82.3896 9.46416C82.76 9.59558 83.0796 9.80765 83.3484 10.1004C83.6172 10.3931 83.8263 10.7814 83.9756 11.2652C84.125 11.7431 84.1996 12.3345 84.1996 13.0394V19.1416H81.171V13.0394C81.171 12.6392 81.1232 12.3375 81.0276 12.1344C80.938 11.9253 80.8066 11.785 80.6333 11.7133C80.4601 11.6356 80.254 11.5968 80.015 11.5968C79.7283 11.5968 79.4804 11.6565 79.2713 11.776C79.0622 11.8955 78.886 12.0627 78.7426 12.2778C78.6052 12.4869 78.5037 12.7348 78.438 13.0215C78.3723 13.3083 78.3394 13.6219 78.3394 13.9624ZM90.9649 16.7043V12.7079C90.9649 12.4331 90.9261 12.1971 90.8484 12C90.7707 11.8029 90.6483 11.6505 90.481 11.543C90.3138 11.4295 90.0897 11.3728 89.809 11.3728C89.582 11.3728 89.3878 11.4116 89.2265 11.4893C89.0652 11.5669 88.9428 11.6834 88.8592 11.8387C88.7755 11.994 88.7337 12.1912 88.7337 12.4301H85.714C85.714 11.9821 85.8126 11.5669 86.0097 11.1846C86.2128 10.7963 86.4995 10.4588 86.8699 10.172C87.2462 9.88531 87.6943 9.66428 88.214 9.50897C88.7397 9.34767 89.3251 9.26703 89.9703 9.26703C90.7409 9.26703 91.4279 9.39546 92.0312 9.65234C92.6405 9.90921 93.1214 10.2945 93.4739 10.8083C93.8263 11.316 94.0025 11.9552 94.0025 12.7258V16.6954C94.0025 17.3286 94.0384 17.8095 94.1101 18.138C94.1817 18.4606 94.2833 18.7443 94.4147 18.9893V19.1416H91.386C91.2427 18.8429 91.1351 18.4785 91.0635 18.0484C90.9977 17.6123 90.9649 17.1643 90.9649 16.7043ZM91.3323 13.2187L91.3502 14.8316H90.0151C89.7343 14.8316 89.4954 14.8704 89.2982 14.948C89.1071 15.0257 88.9517 15.1332 88.8323 15.2706C88.7188 15.402 88.6351 15.5514 88.5814 15.7187C88.5336 15.8859 88.5097 16.0621 88.5097 16.2473C88.5097 16.4265 88.5515 16.5878 88.6351 16.7312C88.7247 16.8686 88.8442 16.9761 88.9936 17.0538C89.1429 17.1314 89.3102 17.1703 89.4954 17.1703C89.8299 17.1703 90.1136 17.1075 90.3466 16.9821C90.5856 16.8507 90.7678 16.6924 90.8932 16.5072C91.0187 16.322 91.0814 16.1488 91.0814 15.9875L91.7445 17.224C91.625 17.463 91.4876 17.7049 91.3323 17.9498C91.1829 18.1948 90.9948 18.4218 90.7678 18.6308C90.5467 18.834 90.2749 19.0012 89.9523 19.1326C89.6298 19.2581 89.2385 19.3208 88.7785 19.3208C88.1811 19.3208 87.6316 19.1984 87.1298 18.9534C86.6339 18.7085 86.2367 18.368 85.938 17.9319C85.6393 17.4899 85.49 16.9821 85.49 16.4086C85.49 15.9068 85.5796 15.4588 85.7588 15.0645C85.944 14.6703 86.2218 14.3357 86.5921 14.0609C86.9625 13.7862 87.4344 13.5771 88.0079 13.4337C88.5814 13.2903 89.2564 13.2187 90.033 13.2187H91.3323ZM100.759 16.4176C100.759 16.2503 100.702 16.1069 100.589 15.9875C100.481 15.862 100.29 15.7485 100.015 15.647C99.7403 15.5394 99.355 15.4319 98.8592 15.3244C98.3872 15.2228 97.9422 15.0884 97.524 14.9212C97.1119 14.7539 96.7504 14.5508 96.4398 14.3118C96.1292 14.0729 95.8843 13.7891 95.705 13.4606C95.5318 13.132 95.4452 12.7557 95.4452 12.3316C95.4452 11.9194 95.5318 11.5311 95.705 11.1667C95.8843 10.7963 96.1441 10.4707 96.4846 10.19C96.8311 9.90323 97.2522 9.67922 97.7481 9.51793C98.2439 9.35066 98.8084 9.26703 99.4416 9.26703C100.314 9.26703 101.066 9.40144 101.7 9.67026C102.333 9.9331 102.82 10.3035 103.16 10.7814C103.507 11.2533 103.68 11.7999 103.68 12.4212H100.66C100.66 12.1762 100.618 11.9672 100.535 11.7939C100.457 11.6207 100.329 11.4893 100.149 11.3997C99.9703 11.3041 99.7313 11.2563 99.4326 11.2563C99.2236 11.2563 99.0324 11.2951 98.8592 11.3728C98.6919 11.4504 98.5575 11.558 98.4559 11.6953C98.3544 11.8327 98.3036 11.994 98.3036 12.1792C98.3036 12.3106 98.3335 12.4301 98.3932 12.5376C98.4589 12.6392 98.5575 12.7348 98.6889 12.8244C98.8203 12.908 98.9876 12.9857 99.1907 13.0574C99.3938 13.1231 99.6387 13.1828 99.9255 13.2366C100.577 13.356 101.186 13.5263 101.753 13.7473C102.321 13.9684 102.781 14.282 103.133 14.6882C103.492 15.0944 103.671 15.641 103.671 16.328C103.671 16.7581 103.572 17.1553 103.375 17.5197C103.178 17.8782 102.894 18.1948 102.524 18.4696C102.154 18.7384 101.709 18.9475 101.189 19.0968C100.669 19.2461 100.084 19.3208 99.4326 19.3208C98.5067 19.3208 97.7242 19.1565 97.085 18.828C96.4458 18.4935 95.9619 18.0753 95.6334 17.5735C95.3108 17.0657 95.1495 16.552 95.1495 16.0323H97.9631C97.9751 16.331 98.0467 16.5759 98.1782 16.767C98.3156 16.9582 98.4978 17.0986 98.7248 17.1882C98.9518 17.2778 99.2146 17.3226 99.5133 17.3226C99.7881 17.3226 100.015 17.2838 100.194 17.2061C100.379 17.1285 100.52 17.0239 100.615 16.8925C100.711 16.7551 100.759 16.5968 100.759 16.4176ZM110.194 9.44624V11.543H104.352V9.44624H110.194ZM105.58 7.03584H108.599V15.9785C108.599 16.2354 108.629 16.4355 108.689 16.5789C108.749 16.7163 108.85 16.8148 108.994 16.8746C109.143 16.9283 109.34 16.9552 109.585 16.9552C109.758 16.9552 109.902 16.9522 110.015 16.9463C110.129 16.9343 110.236 16.9194 110.338 16.9015V19.061C110.081 19.1446 109.812 19.2073 109.531 19.2491C109.25 19.2969 108.952 19.3208 108.635 19.3208C107.99 19.3208 107.437 19.2193 106.977 19.0162C106.523 18.813 106.177 18.4935 105.938 18.0574C105.699 17.6213 105.58 17.0538 105.58 16.3549V7.03584ZM116.09 19.3208C115.302 19.3208 114.597 19.1984 113.976 18.9534C113.354 18.7025 112.829 18.359 112.399 17.923C111.974 17.4869 111.649 16.9851 111.422 16.4176C111.201 15.8501 111.09 15.2497 111.09 14.6165V14.276C111.09 13.5651 111.189 12.908 111.386 12.3047C111.583 11.6953 111.876 11.1637 112.264 10.7097C112.653 10.2557 113.139 9.90323 113.725 9.65234C114.31 9.39546 114.991 9.26703 115.768 9.26703C116.455 9.26703 117.07 9.37754 117.614 9.59857C118.157 9.8196 118.617 10.1362 118.994 10.5484C119.376 10.9606 119.666 11.4594 119.863 12.0448C120.066 12.6302 120.167 13.2873 120.167 14.0161V15.2437H112.246V13.3531H117.219V13.1201C117.225 12.7975 117.169 12.5227 117.049 12.2957C116.936 12.0687 116.768 11.8955 116.547 11.776C116.326 11.6565 116.058 11.5968 115.741 11.5968C115.412 11.5968 115.141 11.6685 114.926 11.8118C114.716 11.9552 114.552 12.1523 114.433 12.4032C114.319 12.6482 114.239 12.9319 114.191 13.2545C114.143 13.5771 114.119 13.9176 114.119 14.276V14.6165C114.119 14.9749 114.167 15.3005 114.262 15.5932C114.364 15.8859 114.507 16.1368 114.693 16.3459C114.884 16.549 115.111 16.7073 115.374 16.8208C115.642 16.9343 115.947 16.9911 116.288 16.9911C116.7 16.9911 117.106 16.9134 117.506 16.7581C117.906 16.6028 118.25 16.3459 118.537 15.9875L119.908 17.6183C119.71 17.8991 119.43 18.1709 119.065 18.4337C118.707 18.6966 118.277 18.9116 117.775 19.0789C117.273 19.2402 116.712 19.3208 116.09 19.3208ZM124.442 11.8477V19.1416H121.422V9.44624H124.245L124.442 11.8477ZM127.309 9.37456L127.255 12.1792C127.136 12.1673 126.975 12.1523 126.771 12.1344C126.568 12.1165 126.398 12.1075 126.261 12.1075C125.908 12.1075 125.604 12.1494 125.347 12.233C125.096 12.3106 124.887 12.4301 124.719 12.5914C124.558 12.7467 124.439 12.9439 124.361 13.1828C124.289 13.4218 124.256 13.6995 124.262 14.0161L123.716 13.6577C123.716 13.0066 123.779 12.4152 123.904 11.8835C124.035 11.3459 124.221 10.8829 124.46 10.4946C124.699 10.1004 124.988 9.79869 125.329 9.58961C125.669 9.37456 126.052 9.26703 126.476 9.26703C126.625 9.26703 126.771 9.27599 126.915 9.29391C127.064 9.31183 127.196 9.33871 127.309 9.37456Z" fill="white"/>
<defs>
<clipPath id="clip0_11_1092">
<rect width="25.284" height="25.284" fill="white"/>
</clipPath>
</defs>
</svg>
