<svg width="24" height="24" viewBox="0 0 24 24" fill="none" xmlns="http://www.w3.org/2000/svg">
<g clip-path="url(#clip0_14_86)">
<path d="M22.8581 1.1475H23.9981V12.57H22.8581V1.1475ZM10.2881 0H22.8581V1.1475H10.2881V0ZM18.2906 12.57H22.8581V13.7175H18.2906V12.57ZM18.2906 8.0025H19.4306V10.29H18.2906V8.0025ZM18.2906 4.575H19.4306V5.715H18.2906V4.575ZM17.1431 13.7175H18.2906V14.8575H17.1431V13.7175ZM16.0031 14.8575H17.1431V16.005H16.0031V14.8575ZM16.0031 11.43V12.57H17.1431V11.43H18.2906V10.29H17.1431V8.0025H18.2906V6.855H17.1431V4.575H18.2906V3.4275H17.1431V2.2875H16.0031V3.4275H14.8556V4.575H16.0031V6.855H14.8556V8.0025H16.0031V10.29H14.8556V11.43H16.0031ZM13.7156 13.7175H12.5756V17.145H16.0031V16.005H13.7156V13.7175ZM13.7156 9.1425H14.8556V10.29H13.7156V9.1425ZM13.7156 4.575H14.8556V6.855H13.7156V4.575ZM11.4281 22.86H13.7156V24H11.4281V22.86ZM9.14062 21.7125H11.4281V22.86H9.14062V21.7125ZM9.14062 19.4325H10.2881V20.5725H9.14062V19.4325ZM9.14062 1.1475H10.2881V8.0025H9.14062V1.1475Z" fill="#1a75da"/>
<path d="M3.43594 20.5724V21.7124H5.71594V23.9999H6.86344V21.7124H9.14344V20.5724H3.43594ZM8.00344 17.1449H9.14344V18.2849H8.00344V17.1449ZM8.00344 14.8574H9.14344V16.0049H8.00344V14.8574ZM5.71594 18.2849H8.00344V19.4324H5.71594V18.2849ZM3.43594 14.8574H4.57594V16.0049H3.43594V14.8574ZM2.28844 19.4324H3.43594V20.5724H2.28844V19.4324ZM1.14844 21.7124H3.43594V22.8599H1.14844V21.7124Z" fill="#1a75da"/>
<path d="M2.2875 13.7176H3.435V12.5701H9.1425V13.7176H10.29V19.4326H11.43V11.4301H10.29V10.2901H9.1425V9.14258H3.435V10.2901H2.2875V11.4301H1.1475V19.4326H2.2875V13.7176ZM0 22.8601H1.1475V24.0001H0V22.8601Z" fill="#1a75da"/>
</g>
<defs>
<clipPath id="clip0_14_86">
<rect width="24" height="24" fill="white"/>
</clipPath>
</defs>
</svg>
