<svg width="20" height="20" viewBox="0 0 20 20" fill="none" xmlns="http://www.w3.org/2000/svg">
<path fill-rule="evenodd" clip-rule="evenodd" d="M17.3333 3.66667V8.66667V10.3333V15.3333H2.66667V10.3333V8.66667V3.66667H17.3333ZM19 16.1667V2.83333C19 2.61232 18.9122 2.40036 18.7559 2.24408C18.5996 2.0878 18.3877 2 18.1667 2H1.83333C1.61232 2 1.40036 2.0878 1.24408 2.24408C1.0878 2.40036 1 2.61232 1 2.83333V16.1667C1 16.3877 1.0878 16.5996 1.24408 16.7559C1.40036 16.9122 1.61232 17 1.83333 17H18.1667C18.3877 17 18.5996 16.9122 18.7559 16.7559C18.9122 16.5996 19 16.3877 19 16.1667ZM7.83333 12H5.33333V13.6667H7.83333V12ZM7.83333 5.33333H5.33333V7H7.83333V5.33333Z" fill="#449CF8"/>
</svg>
