<svg width="20" height="20" viewBox="0 0 20 20" fill="none" xmlns="http://www.w3.org/2000/svg">
<!-- Main server outline positioned at inset [11.6% 12.5% 13.4% 12.5%] -->
<g transform="translate(2.5, 2.32)">
<path fill-rule="evenodd" clip-rule="evenodd" d="M13.3333 1.66667V6.66667V8.33333V13.3333H1.66667V8.33333V6.66667V1.66667H13.3333ZM15 14.1667V0.833333C15 0.61232 14.9122 0.400358 14.7559 0.244078C14.5996 0.0877973 14.3877 0 14.1667 0H0.833333C0.61232 0 0.400358 0.0877973 0.244078 0.244078C0.0877973 0.400358 0 0.61232 0 0.833333V14.1667C0 14.3877 0.0877973 14.5996 0.244078 14.7559C0.400358 14.9122 0.61232 15 0.833333 15H14.1667C14.3877 15 14.5996 14.9122 14.7559 14.7559C14.9122 14.5996 15 14.3877 15 14.1667ZM5.83333 10H3.33333V11.6667H5.83333V10ZM5.83333 3.33333H3.33333V5H5.83333V3.33333Z" fill="#1a75da"/>
</g>
<!-- Four indicator dots at left: 4px, top: 8.91px -->
<rect x="4" y="8.91" width="2.4" height="2" fill="#1a75da"/>
<rect x="7.4" y="8.91" width="2.4" height="2" fill="#1a75da"/>
<rect x="10.8" y="8.91" width="2.4" height="2" fill="#1a75da"/>
<rect x="14.2" y="8.91" width="2.4" height="2" fill="#1a75da"/>
</svg>
