<svg width="20" height="20" viewBox="0 0 20 20" fill="none" xmlns="http://www.w3.org/2000/svg">
<g clip-path="url(#clip0_3357_1392)">
<path d="M16.2224 9.99995C16.2223 8.61308 15.7588 7.26601 14.9056 6.17265C14.0524 5.07929 12.8583 4.30232 11.5131 3.96512C10.1678 3.62791 8.74847 3.74981 7.48041 4.31144C6.21235 4.87307 5.16827 5.84225 4.51397 7.06507C3.85967 8.2879 3.63265 9.69426 3.86896 11.0609C4.10528 12.4274 4.79138 13.6759 5.81832 14.608C6.84526 15.5401 8.15416 16.1024 9.53718 16.2056C10.9202 16.3088 12.2981 15.947 13.452 15.1776L14.3153 16.4718C13.0384 17.3256 11.5363 17.7802 10.0002 17.7777C5.70452 17.7777 2.22241 14.2956 2.22241 9.99995C2.22241 5.70428 5.70452 2.22217 10.0002 2.22217C14.2959 2.22217 17.778 5.70428 17.778 9.99995V11.1666C17.7781 11.749 17.5914 12.316 17.2454 12.7844C16.8993 13.2529 16.4122 13.598 15.8556 13.7691C15.2989 13.9402 14.7021 13.9283 14.1527 13.7351C13.6033 13.5419 13.1303 13.1776 12.8033 12.6957C12.2842 13.2355 11.6203 13.6139 10.8913 13.7855C10.1623 13.9571 9.39933 13.9145 8.69396 13.6629C7.98859 13.4114 7.37086 12.9615 6.91498 12.3674C6.45911 11.7732 6.18448 11.0601 6.12409 10.3136C6.0637 9.56718 6.22012 8.81917 6.57456 8.15947C6.929 7.49977 7.46639 6.95644 8.12214 6.59476C8.7779 6.23308 9.52414 6.06843 10.2712 6.1206C11.0183 6.17276 11.7344 6.43953 12.3335 6.88883H13.8891V11.1666C13.8891 11.476 14.012 11.7728 14.2308 11.9916C14.4496 12.2104 14.7463 12.3333 15.0557 12.3333C15.3652 12.3333 15.6619 12.2104 15.8807 11.9916C16.0995 11.7728 16.2224 11.476 16.2224 11.1666V9.99995ZM10.0002 7.66661C9.38135 7.66661 8.78786 7.91245 8.35027 8.35003C7.91269 8.78762 7.66686 9.38111 7.66686 9.99995C7.66686 10.6188 7.91269 11.2123 8.35027 11.6499C8.78786 12.0874 9.38135 12.3333 10.0002 12.3333C10.619 12.3333 11.2125 12.0874 11.6501 11.6499C12.0877 11.2123 12.3335 10.6188 12.3335 9.99995C12.3335 9.38111 12.0877 8.78762 11.6501 8.35003C11.2125 7.91245 10.619 7.66661 10.0002 7.66661Z" fill="white"/>
</g>
</svg>
