<svg width="20" height="20" viewBox="0 0 20 20" fill="none" xmlns="http://www.w3.org/2000/svg">
<g clip-path="url(#clip0_3357_1406)">
<path d="M3.26457 13.889C2.93578 13.3204 2.6802 12.7126 2.50391 12.0799C2.88759 11.8847 3.20981 11.5873 3.43493 11.2204C3.66005 10.8535 3.77928 10.4314 3.77944 10.001C3.7796 9.57051 3.66068 9.1484 3.43584 8.78133C3.211 8.41426 2.889 8.11654 2.50546 7.92111C2.85705 6.64982 3.52647 5.48896 4.45068 4.54788C4.81165 4.78256 5.2305 4.91279 5.66089 4.92416C6.09128 4.93553 6.51643 4.8276 6.88927 4.61231C7.26212 4.39702 7.56814 4.08277 7.77345 3.70434C7.97876 3.3259 8.07537 2.89804 8.05257 2.46811C9.32977 2.13803 10.67 2.13857 11.9469 2.46966C11.9243 2.89959 12.0211 3.32739 12.2266 3.70571C12.432 4.08404 12.7382 4.39814 13.1111 4.61326C13.484 4.82839 13.9092 4.93614 14.3396 4.9246C14.7699 4.91306 15.1887 4.78268 15.5496 4.54788C15.9999 5.00677 16.3997 5.52866 16.7357 6.11122C17.0725 6.69377 17.3245 7.30122 17.4964 7.92033C17.1127 8.11547 16.7904 8.41295 16.5653 8.77986C16.3402 9.14676 16.221 9.56878 16.2208 9.99924C16.2207 10.4297 16.3396 10.8518 16.5644 11.2189C16.7893 11.586 17.1113 11.8837 17.4948 12.0791C17.1432 13.3504 16.4738 14.5113 15.5496 15.4523C15.1886 15.2177 14.7698 15.0874 14.3394 15.0761C13.909 15.0647 13.4838 15.1726 13.111 15.3879C12.7381 15.6032 12.4321 15.9174 12.2268 16.2959C12.0215 16.6743 11.9249 17.1022 11.9477 17.5321C10.6705 17.8622 9.33028 17.8616 8.05335 17.5306C8.07594 17.1006 7.97915 16.6728 7.77368 16.2945C7.56821 15.9162 7.26207 15.6021 6.88915 15.3869C6.51623 15.1718 6.09106 15.0641 5.66069 15.0756C5.23033 15.0872 4.81154 15.2175 4.45068 15.4523C3.99101 14.9833 3.59248 14.458 3.26457 13.889ZM7.6668 14.0414C8.49562 14.5195 9.11879 15.2867 9.4168 16.1959C9.80491 16.2324 10.1946 16.2332 10.5827 16.1967C10.8809 15.2873 11.5043 14.5201 12.3335 14.0422C13.162 13.5629 14.1383 13.4064 15.0751 13.6028C15.3007 13.2854 15.4951 12.9471 15.6569 12.5932C15.0187 11.8803 14.6661 10.9569 14.6668 10.0001C14.6668 9.02011 15.0324 8.10466 15.6569 7.407C15.494 7.05322 15.2987 6.71527 15.0736 6.39744C14.1374 6.59368 13.1616 6.43748 12.3335 5.95877C11.5046 5.48073 10.8815 4.71354 10.5835 3.80433C10.1954 3.76777 9.80568 3.767 9.41757 3.80355C9.11937 4.71289 8.49591 5.4801 7.6668 5.958C6.83829 6.43735 5.86194 6.59384 4.92513 6.39744C4.70001 6.715 4.50523 7.053 4.34335 7.407C4.98157 8.11988 5.33415 9.04328 5.33346 10.0001C5.33346 10.9801 4.96791 11.8956 4.34335 12.5932C4.50627 12.947 4.70155 13.2849 4.92668 13.6028C5.86291 13.4065 6.83862 13.5627 7.6668 14.0414ZM10.0001 12.3334C9.38129 12.3334 8.7878 12.0876 8.35021 11.65C7.91263 11.2124 7.6668 10.6189 7.6668 10.0001C7.6668 9.38127 7.91263 8.78778 8.35021 8.35019C8.7878 7.91261 9.38129 7.66677 10.0001 7.66677C10.619 7.66677 11.2125 7.91261 11.65 8.35019C12.0876 8.78778 12.3335 9.38127 12.3335 10.0001C12.3335 10.6189 12.0876 11.2124 11.65 11.65C11.2125 12.0876 10.619 12.3334 10.0001 12.3334ZM10.0001 10.7779C10.2064 10.7779 10.4042 10.6959 10.5501 10.5501C10.696 10.4042 10.7779 10.2064 10.7779 10.0001C10.7779 9.79383 10.696 9.596 10.5501 9.45014C10.4042 9.30427 10.2064 9.22233 10.0001 9.22233C9.79385 9.22233 9.59602 9.30427 9.45016 9.45014C9.30429 9.596 9.22235 9.79383 9.22235 10.0001C9.22235 10.2064 9.30429 10.4042 9.45016 10.5501C9.59602 10.6959 9.79385 10.7779 10.0001 10.7779Z" fill="white"/>
</g>
<defs>
<clipPath id="clip0_3357_1406">
<rect width="18.6667" height="18.6667" fill="white" transform="translate(0.666748 0.666748)"/>
</clipPath>
</defs>
</svg>
