<svg width="20" height="20" viewBox="0 0 20 20" fill="none" xmlns="http://www.w3.org/2000/svg">
<rect x="2.5" y="2.5" width="15" height="4" rx="0.5" stroke="currentColor" stroke-width="1"/>
<rect x="4" y="4" width="2" height="1" fill="currentColor"/>
<rect x="6.5" y="4" width="2" height="1" fill="currentColor"/>
<rect x="9" y="4" width="2" height="1" fill="currentColor"/>
<rect x="11.5" y="4" width="2" height="1" fill="currentColor"/>
<rect x="2.5" y="8" width="15" height="4" rx="0.5" stroke="currentColor" stroke-width="1"/>
<rect x="4" y="9.5" width="2" height="1" fill="currentColor"/>
<rect x="6.5" y="9.5" width="2" height="1" fill="currentColor"/>
<rect x="9" y="9.5" width="2" height="1" fill="currentColor"/>
<rect x="11.5" y="9.5" width="2" height="1" fill="currentColor"/>
<rect x="2.5" y="13.5" width="15" height="4" rx="0.5" stroke="currentColor" stroke-width="1"/>
<rect x="4" y="15" width="2" height="1" fill="currentColor"/>
<rect x="6.5" y="15" width="2" height="1" fill="currentColor"/>
<rect x="9" y="15" width="2" height="1" fill="currentColor"/>
<rect x="11.5" y="15" width="2" height="1" fill="currentColor"/>
</svg>
