<svg width="25" height="24" viewBox="0 0 25 24" fill="none" xmlns="http://www.w3.org/2000/svg">
<g clip-path="url(#clip0_3483_2925)">
<path d="M19.5 10H20.5C20.7652 10 21.0196 10.1054 21.2071 10.2929C21.3946 10.4804 21.5 10.7348 21.5 11V21C21.5 21.2652 21.3946 21.5196 21.2071 21.7071C21.0196 21.8946 20.7652 22 20.5 22H4.5C4.23478 22 3.98043 21.8946 3.79289 21.7071C3.60536 21.5196 3.5 21.2652 3.5 21V11C3.5 10.7348 3.60536 10.4804 3.79289 10.2929C3.98043 10.1054 4.23478 10 4.5 10H5.5V9C5.5 8.08075 5.68106 7.1705 6.03284 6.32122C6.38463 5.47194 6.90024 4.70026 7.55025 4.05025C8.20026 3.40024 8.97194 2.88463 9.82122 2.53284C10.6705 2.18106 11.5807 2 12.5 2C13.4193 2 14.3295 2.18106 15.1788 2.53284C16.0281 2.88463 16.7997 3.40024 17.4497 4.05025C18.0998 4.70026 18.6154 5.47194 18.9672 6.32122C19.3189 7.1705 19.5 8.08075 19.5 9V10ZM17.5 10V9C17.5 7.67392 16.9732 6.40215 16.0355 5.46447C15.0979 4.52678 13.8261 4 12.5 4C11.1739 4 9.90215 4.52678 8.96447 5.46447C8.02678 6.40215 7.5 7.67392 7.5 9V10H17.5ZM11.5 14V18H13.5V14H11.5Z" fill="#BBBBBB"/>
</g>
<defs>
<clipPath id="clip0_3483_2925">
<rect width="24" height="24" fill="white" transform="translate(0.5)"/>
</clipPath>
</defs>
</svg>
