<svg width="24" height="24" viewBox="0 0 24 24" fill="none" xmlns="http://www.w3.org/2000/svg">
<path d="M2 22C2 19.8783 2.84285 17.8434 4.34315 16.3431C5.84344 14.8429 7.87827 14 10 14C12.1217 14 14.1566 14.8429 15.6569 16.3431C17.1571 17.8434 18 19.8783 18 22H16C16 20.4087 15.3679 18.8826 14.2426 17.7574C13.1174 16.6321 11.5913 16 10 16C8.4087 16 6.88258 16.6321 5.75736 17.7574C4.63214 18.8826 4 20.4087 4 22H2ZM10 13C6.685 13 4 10.315 4 7C4 3.685 6.685 1 10 1C13.315 1 16 3.685 16 7C16 10.315 13.315 13 10 13ZM10 11C12.21 11 14 9.21 14 7C14 4.79 12.21 3 10 3C7.79 3 6 4.79 6 7C6 9.21 7.79 11 10 11ZM18.284 14.703C19.6896 15.2133 20.9019 16.1299 21.7646 17.3394C22.6273 18.5489 23.1017 19.9949 23.127 21.487L23.13 22H21.13L21.128 21.602C21.1066 20.4762 20.6715 19.3952 19.8968 18.5558C19.1221 17.7165 18.0591 17.1734 16.916 17.024L16.597 16.988L17.004 16.738C17.5896 16.3666 18.0902 15.8758 18.4736 15.2967C18.857 14.7176 19.1148 14.0632 19.23 13.378L19.281 13.062L19.553 13.214C19.8176 13.3616 20.0704 13.5268 20.31 13.708L20.553 13.904L20.409 14.156C20.0838 14.711 19.6767 15.2177 19.2 15.662L18.924 15.92L18.572 15.705C18.4755 15.6446 18.3806 15.5811 18.288 15.515L18.284 14.703Z" fill="currentColor"/>
</svg>
