<svg width="20" height="20" viewBox="0 0 20 20" fill="none" xmlns="http://www.w3.org/2000/svg">
<g clip-path="url(#clip0_3357_1413)">
<path d="M16.2223 17.7779H14.6667V16.2224C14.6667 15.6035 14.4209 15.01 13.9833 14.5724C13.5457 14.1349 12.9522 13.889 12.3334 13.889H7.66672C7.04788 13.889 6.45439 14.1349 6.01681 14.5724C5.57922 15.01 5.33339 15.6035 5.33339 16.2224V17.7779H3.77783V16.2224C3.77783 15.191 4.18755 14.2018 4.91686 13.4725C5.64617 12.7432 6.63532 12.3335 7.66672 12.3335H12.3334C13.3648 12.3335 14.3539 12.7432 15.0832 13.4725C15.8126 14.2018 16.2223 15.191 16.2223 16.2224V17.7779ZM10.0001 10.7779C9.38722 10.7779 8.78038 10.6572 8.2142 10.4227C7.64801 10.1882 7.13356 9.84442 6.70022 9.41108C6.26688 8.97774 5.92314 8.46329 5.68862 7.8971C5.45409 7.33092 5.33339 6.72408 5.33339 6.11125C5.33339 5.49841 5.45409 4.89158 5.68862 4.32539C5.92314 3.7592 6.26688 3.24476 6.70022 2.81142C7.13356 2.37808 7.64801 2.03433 8.2142 1.79981C8.78038 1.56529 9.38722 1.44458 10.0001 1.44458C11.2377 1.44458 12.4247 1.93625 13.2999 2.81142C14.1751 3.68658 14.6667 4.87357 14.6667 6.11125C14.6667 7.34892 14.1751 8.53591 13.2999 9.41108C12.4247 10.2862 11.2377 10.7779 10.0001 10.7779ZM10.0001 9.22236C10.8252 9.22236 11.6165 8.89458 12.1999 8.31113C12.7834 7.72769 13.1112 6.93636 13.1112 6.11125C13.1112 5.28613 12.7834 4.49481 12.1999 3.91136C11.6165 3.32791 10.8252 3.00014 10.0001 3.00014C9.17494 3.00014 8.38361 3.32791 7.80017 3.91136C7.21672 4.49481 6.88894 5.28613 6.88894 6.11125C6.88894 6.93636 7.21672 7.72769 7.80017 8.31113C8.38361 8.89458 9.17494 9.22236 10.0001 9.22236Z" fill="white"/>
</g>
<defs>
<clipPath id="clip0_3357_1413">
<rect width="18.6667" height="18.6667" fill="white" transform="translate(0.666748 0.666748)"/>
</clipPath>
</defs>
</svg>
