<svg width="24" height="24" viewBox="0 0 24 24" fill="none" xmlns="http://www.w3.org/2000/svg">
<path d="M6 10V8C6 6.67392 6.52678 5.40215 7.46447 4.46447C8.40215 3.52678 9.67392 3 11 3H13C14.3261 3 15.5979 3.52678 16.5355 4.46447C17.4732 5.40215 18 6.67392 18 8V10H19C19.2652 10 19.5196 10.1054 19.7071 10.2929C19.8946 10.4804 20 10.7348 20 11V20C20 20.2652 19.8946 20.5196 19.7071 20.7071C19.5196 20.8946 19.2652 21 19 21H5C4.73478 21 4.48043 20.8946 4.29289 20.7071C4.10536 20.5196 4 20.2652 4 20V11C4 10.7348 4.10536 10.4804 4.29289 10.2929C4.48043 10.1054 4.73478 10 5 10H6ZM6 12V19H18V12H6ZM11 14H13V17H11V14ZM8 10H16V8C16 7.20435 15.6839 6.44129 15.1213 5.87868C14.5587 5.31607 13.7956 5 13 5H11C10.2044 5 9.44129 5.31607 8.87868 5.87868C8.31607 6.44129 8 7.20435 8 8V10Z" fill="currentColor"/>
</svg>
