<svg preserveAspectRatio="none" width="100%" height="100%" overflow="visible" style="display: block;" viewBox="0 0 24 24" fill="none" xmlns="http://www.w3.org/2000/svg">
<g id="memory:map">
<path id="Vector" d="M2.18359 4.36346H4.36541V3.27255H6.54723V2.18164H10.9109V3.27255H14.1836V4.36346H16.3654V3.27255H18.5472V2.18164H21.82V19.6362H19.6381V20.7271H17.4563V21.818H13.0927V20.7271H9.81996V19.6362H7.63814V20.7271H5.45632V21.818H2.18359V4.36346ZM4.36541 6.54528V18.5453H6.54723V17.4544H7.63814V5.45437H5.45632V6.54528H4.36541ZM13.0927 5.45437H9.81996V17.4544H10.9109V18.5453H14.1836V6.54528H13.0927V5.45437ZM17.4563 6.54528H16.3654V18.5453H18.5472V17.4544H19.6381V5.45437H17.4563V6.54528Z" fill="var(--fill-0, #1A75DA)"/>
</g>
</svg>
