<svg preserveAspectRatio="none" width="100%" height="100%" overflow="visible" style="display: block;" viewBox="0 0 24 24" fill="none" xmlns="http://www.w3.org/2000/svg">
<g id="streamline-pixel:interface-essential-call-center-contact-help" clip-path="url(#clip0_20_17)">
<path id="Vector" d="M22.8536 10.8603H21.7136V9.71281H19.4261V4.00531H18.2861V17.7153H19.4261V21.1428H20.5736V18.8553H21.7136V17.7153H22.8536V16.5753H24.0011V12.0003H22.8536V10.8603ZM20.5736 16.5753H19.4261V10.8603H20.5736V16.5753ZM15.9986 21.1428H19.4261V22.2903H15.9986V21.1428ZM17.1386 2.85781H18.2861V4.00531H17.1386V2.85781ZM15.9986 1.71781H17.1386V2.85781H15.9986V1.71781ZM7.99609 0.570312H15.9986V1.71781H7.99609V0.570312Z" fill="var(--fill-0, #1A75DA)"/>
<path id="Vector_2" d="M12.57 22.2893H15.9975V23.4293H12.57V22.2893ZM12.57 20.0018H15.9975V21.1418H12.57V20.0018ZM11.43 21.1418H12.57V22.2893H11.43V21.1418ZM6.855 1.7168H7.995V2.8568H6.855V1.7168ZM5.715 2.8568H6.855V4.0043H5.715V2.8568ZM4.5675 9.7118H2.2875V10.8593H1.14V11.9993H0V16.5743H1.14V17.7143H2.2875V18.8543H4.5675V17.7143H5.715V4.0043H4.5675V9.7118ZM4.5675 16.5743H3.4275V10.8593H4.5675V16.5743Z" fill="var(--fill-0, #1A75DA)"/>
</g>
<defs>
<clipPath id="clip0_20_17">
<rect width="24" height="24" fill="white"/>
</clipPath>
</defs>
</svg>
